<svg width="121" height="121" viewBox="0 0 121 121" fill="none" xmlns="http://www.w3.org/2000/svg">
<rect x="2.5" y="2.13281" width="116" height="116" rx="58" stroke="#6A0DAD" stroke-width="4"/>
<path d="M51.591 78.3146L47.9546 83.4055M60.3182 81.5874V88.1328M70.1364 78.3146L73.4091 83.4055M73.4091 63.0419L77.7728 61.2237L84.6819 65.2237L83.2273 56.1328L89.0455 51.4055H81.4091L77.7728 43.4055L73.4091 51.4055H70.1364M73.4091 36.1328L70.1364 40.8601M60.3182 32.1328V39.0419M47.9546 36.1328L51.591 40.8601M50.1364 51.4055H46.5L42.8637 43.4055L39.591 51.4055H31.9546L37.4091 56.1328L35.9546 65.2237L42.8637 61.2237L46.5 63.0419M46.5 56.1328H55.9546L60.3182 44.8601L65.0455 56.1328H75.2273L67.9546 63.0419L70.1364 72.8601L60.3182 67.7692L51.591 72.8601L53.0455 63.0419L46.5 56.1328Z" stroke="#6A0DAD" stroke-width="3" stroke-linecap="round" stroke-linejoin="round"/>
</svg>
