<svg width="65" height="65" viewBox="0 0 65 65" fill="none" xmlns="http://www.w3.org/2000/svg">
<rect x="0.5" y="0.132812" width="64" height="64" rx="32" fill="#F4DC03" fill-opacity="0.7"/>
<path d="M43.75 40.3828C43.75 41.3774 43.3549 42.3312 42.6517 43.0345C41.9484 43.7377 40.9946 44.1328 40 44.1328C39.0054 44.1328 38.0516 43.7377 37.3483 43.0345C36.6451 42.3312 36.25 41.3774 36.25 40.3828C36.25 39.3883 36.6451 38.4344 37.3483 37.7312C38.0516 37.0279 39.0054 36.6328 40 36.6328C40.9946 36.6328 41.9484 37.0279 42.6517 37.7312C43.3549 38.4344 43.75 39.3883 43.75 40.3828ZM28.75 40.3828C28.75 41.3774 28.3549 42.3312 27.6517 43.0345C26.9484 43.7377 25.9946 44.1328 25 44.1328C24.0054 44.1328 23.0516 43.7377 22.3483 43.0345C21.6451 42.3312 21.25 41.3774 21.25 40.3828C21.25 39.3883 21.6451 38.4344 22.3483 37.7312C23.0516 37.0279 24.0054 36.6328 25 36.6328C25.9946 36.6328 26.9484 37.0279 27.6517 37.7312C28.3549 38.4344 28.75 39.3883 28.75 40.3828Z" stroke="#6A0DAD" stroke-width="1.5" stroke-linecap="round" stroke-linejoin="round"/>
<path d="M36.25 40.3828H28.75M43.75 40.3828H44.8945C45.2245 40.3828 45.3895 40.3828 45.5275 40.3648C46.0241 40.303 46.4859 40.0774 46.8398 39.7237C47.1938 39.37 47.4198 38.9083 47.482 38.4118C47.5 38.2723 47.5 38.1073 47.5 37.7773V33.6328C47.5 31.047 46.4728 28.567 44.6443 26.7385C42.8158 24.91 40.3359 23.8828 37.75 23.8828M17.5 20.1328H32.5C34.621 20.1328 35.6815 20.1328 36.34 20.7928C37 21.4498 37 22.5103 37 24.6328V37.3828M17.5 33.2578V36.6328C17.5 38.0353 17.5 38.7358 17.8015 39.2578C17.999 39.5998 18.283 39.8838 18.625 40.0813C19.147 40.3828 19.8475 40.3828 21.25 40.3828M17.5 24.6328H26.5M17.5 29.1328H23.5" stroke="#6A0DAD" stroke-width="1.5" stroke-linecap="round" stroke-linejoin="round"/>
</svg>
