<svg width="20" height="16" viewBox="0 0 20 16" fill="none" xmlns="http://www.w3.org/2000/svg">
<path d="M19 0.632812H1C0.801088 0.632812 0.610322 0.71183 0.46967 0.852483C0.329018 0.993135 0.25 1.1839 0.25 1.38281V14.1328C0.25 14.5306 0.408035 14.9122 0.68934 15.1935C0.970644 15.4748 1.35218 15.6328 1.75 15.6328H18.25C18.6478 15.6328 19.0294 15.4748 19.3107 15.1935C19.592 14.9122 19.75 14.5306 19.75 14.1328V1.38281C19.75 1.1839 19.671 0.993135 19.5303 0.852483C19.3897 0.71183 19.1989 0.632812 19 0.632812ZM17.0716 2.13281L10 8.61562L2.92844 2.13281H17.0716ZM18.25 14.1328H1.75V3.08813L9.49281 10.1859C9.63118 10.313 9.81217 10.3834 10 10.3834C10.1878 10.3834 10.3688 10.313 10.5072 10.1859L18.25 3.08813V14.1328Z" fill="black"/>
</svg>
