<svg width="64" height="65" viewBox="0 0 64 65" fill="none" xmlns="http://www.w3.org/2000/svg">
<rect y="0.132812" width="64" height="64" rx="32" fill="#F4DC03" fill-opacity="0.7"/>
<path d="M20.8 28.1328H43.2M20.8 36.1328H43.2M20 32.1328C20 33.7087 20.3104 35.2691 20.9134 36.725C21.5165 38.1809 22.4004 39.5038 23.5147 40.6181C24.629 41.7324 25.9519 42.6163 27.4078 43.2194C28.8637 43.8224 30.4241 44.1328 32 44.1328C33.5759 44.1328 35.1363 43.8224 36.5922 43.2194C38.0481 42.6163 39.371 41.7324 40.4853 40.6181C41.5996 39.5038 42.4835 38.1809 43.0866 36.725C43.6896 35.2691 44 33.7087 44 32.1328C44 28.9502 42.7357 25.898 40.4853 23.6475C38.2348 21.3971 35.1826 20.1328 32 20.1328C28.8174 20.1328 25.7652 21.3971 23.5147 23.6475C21.2643 25.898 20 28.9502 20 32.1328Z" stroke="#6A0DAD" stroke-width="2" stroke-linecap="round" stroke-linejoin="round"/>
<path d="M31.3335 20.1328C29.0873 23.7323 27.8965 27.89 27.8965 32.1328C27.8965 36.3757 29.0873 40.5333 31.3335 44.1328M32.6669 20.1328C34.9131 23.7323 36.1039 27.89 36.1039 32.1328C36.1039 36.3757 34.9131 40.5333 32.6669 44.1328" stroke="#6A0DAD" stroke-width="2" stroke-linecap="round" stroke-linejoin="round"/>
</svg>
