<svg width="121" height="121" viewBox="0 0 121 121" fill="none" xmlns="http://www.w3.org/2000/svg">
<rect x="2.5" y="2.13281" width="116" height="116" rx="58" stroke="#6A0DAD" stroke-width="4"/>
<circle cx="70.9612" cy="40.1203" r="7.98752" stroke="#6A0DAD" stroke-width="3"/>
<path d="M56.7835 59.4915C67.8643 49.2894 73.2655 49.5853 83.5418 59.4915M39.211 71.0735L37.8132 67.6788L28.4279 71.0735L34.6181 88.0469L44.0035 84.4525L43.005 82.0563M39.211 71.0735L45.601 68.2778C49.3907 64.3325 53.2626 64.3165 57.3826 64.8831C62.6637 66.9442 65.6142 68.093 68.1657 68.2778C72.1537 67.5485 72.4508 67.2477 73.5573 66.88C75.6174 66.7671 76.7518 67.1772 78.7492 68.6772M39.211 71.0735L43.005 82.0563M43.005 82.0563L48.9957 79.4603C51.3965 80.3592 58.5807 81.5528 61.3763 82.0563C71.7883 83.9314 75.3081 78.3412 92.5277 65.6819C92.5277 65.6819 88.7318 63.0639 86.537 63.685L78.7492 68.6772M78.7492 68.6772L78.7492 69.4759L69.1642 74.4681L58.381 74.4681" stroke="#6A0DAD" stroke-width="3" stroke-linecap="round" stroke-linejoin="round"/>
</svg>
