<svg width="121" height="121" viewBox="0 0 121 121" fill="none" xmlns="http://www.w3.org/2000/svg">
<rect x="2.5" y="2.13281" width="116" height="116" rx="58" stroke="#6A0DAD" stroke-width="4"/>
<path d="M43.74 74.5692L36.6079 67.7938C36.9705 67.0287 37.5034 66.7596 38.391 66.2485M38.391 66.2485C40.0848 66.1559 40.6218 66.3017 41.2438 66.724L45.1664 70.6466C48.5071 70.9766 49.9318 72.299 52.1795 75.4013C52.8428 76.3577 52.9479 76.9452 53.0116 78.0163V82.8899M38.391 66.2485L37.5589 57.5712C37.4491 56.7783 37.2244 56.279 36.6079 55.3127C35.1888 53.7471 34.3499 53.466 32.8042 54.0052L33.2797 71.4786L44.3343 82.8899M53.0116 82.8899H55.6267V88.12H40.7683V82.8899H44.3343M53.0116 82.8899H44.3343" stroke="#6A0DAD" stroke-width="3" stroke-linecap="round" stroke-linejoin="round"/>
<path d="M77.2603 74.5809L84.3923 67.8055C84.0297 67.0404 83.4968 66.7714 82.6093 66.2602M82.6093 66.2602C80.9155 66.1677 80.3784 66.3134 79.7565 66.7357L75.8339 70.6583C72.4932 70.9883 71.0684 72.3107 68.8207 75.413C68.1574 76.3694 68.0524 76.9569 67.9886 78.028V82.9016M82.6093 66.2602L83.4414 57.5829C83.5511 56.7901 83.7758 56.2907 84.3923 55.3244C85.8114 53.7588 86.6503 53.4777 88.196 54.0169L87.7206 71.4904L76.6659 82.9016M67.9886 82.9016H65.3736V88.1317H80.232V82.9016H76.6659M67.9886 82.9016H76.6659" stroke="#6A0DAD" stroke-width="3" stroke-linecap="round" stroke-linejoin="round"/>
<path d="M42.5515 50.4375H79.1626" stroke="#6A0DAD" stroke-width="3" stroke-linecap="round" stroke-linejoin="round"/>
<path d="M47.5437 38.0781C52.0798 40.5693 55.4745 41.1353 60.8568 41.2875C68.376 40.8834 71.0064 40.3506 74.1699 38.0781" stroke="#6A0DAD" stroke-width="3" stroke-linecap="round" stroke-linejoin="round"/>
<path d="M74.1699 61.9688C69.6338 59.4776 66.2391 58.9116 60.8568 58.7593C53.3376 59.1635 50.7073 59.6963 47.5437 61.9688" stroke="#6A0DAD" stroke-width="3" stroke-linecap="round" stroke-linejoin="round"/>
<circle cx="60.7382" cy="50.3195" r="18.1867" stroke="#6A0DAD" stroke-width="3"/>
<path d="M60.7379 32.25C57.3993 34.2746 54.6152 37.2077 53.9624 40.6896C53.3097 44.1714 52.6467 46.7409 52.6549 50.3178C52.5654 56.2607 53.2494 57.0586 53.9624 59.4706C55.9747 64.6968 57.3364 66.7484 60.7379 68.2667" stroke="#6A0DAD" stroke-width="3" stroke-linecap="round" stroke-linejoin="round"/>
<path d="M60.8564 32.1328C64.1949 34.1574 66.9791 37.0905 67.6318 40.5724C68.2846 44.0542 68.9476 46.6237 68.9394 50.2006C69.0288 56.1435 68.3448 56.9414 67.6318 59.3534C65.6196 64.5796 64.2579 66.6312 60.8564 68.1495" stroke="#6A0DAD" stroke-width="3" stroke-linecap="round" stroke-linejoin="round"/>
</svg>
