<svg width="65" height="65" viewBox="0 0 65 65" fill="none" xmlns="http://www.w3.org/2000/svg">
<rect x="0.5" y="0.132812" width="64" height="64" rx="32" fill="#F4DC03" fill-opacity="0.7"/>
<path d="M39.3572 28.1328H38.2143V25.8471C38.2143 22.6928 35.6543 20.1328 32.5 20.1328C29.3457 20.1328 26.7857 22.6928 26.7857 25.8471V28.1328H25.6429C24.3857 28.1328 23.3572 29.1614 23.3572 30.4185V41.8471C23.3572 43.1042 24.3857 44.1328 25.6429 44.1328H39.3572C40.6143 44.1328 41.6429 43.1042 41.6429 41.8471V30.4185C41.6429 29.1614 40.6143 28.1328 39.3572 28.1328ZM32.5 38.4185C31.2429 38.4185 30.2143 37.39 30.2143 36.1328C30.2143 34.8757 31.2429 33.8471 32.5 33.8471C33.7572 33.8471 34.7857 34.8757 34.7857 36.1328C34.7857 37.39 33.7572 38.4185 32.5 38.4185ZM29.0715 28.1328V25.8471C29.0715 23.95 30.6029 22.4185 32.5 22.4185C34.3972 22.4185 35.9286 23.95 35.9286 25.8471V28.1328H29.0715Z" fill="#6A0DAD"/>
</svg>
