<svg width="42" height="34" viewBox="0 0 42 34" fill="none" xmlns="http://www.w3.org/2000/svg">
<path d="M2.15551 7.43361C0.905527 7.82856 1.00171 7.91436 1.00171 7.91436C1.19014 8.54489 1.37341 8.8251 1.86704 9.16431L2.63624 9.06816C2.961 9.08027 3.07962 9.26692 3.30928 9.5489C3.41577 14.7545 3.50473 17.6769 3.11699 22.8176C2.87493 23.9371 2.72296 24.1614 2.44394 24.356L1.48244 24.7406C1.11581 25.3666 1.12817 25.7603 1.19399 26.4713C1.73723 26.4915 4.76955 26.5602 9.27057 26.6636C8.79984 28.4221 8.52291 28.8738 8.02062 29.3558C7.58087 29.6361 7.2863 29.804 6.67453 30.125L5.13613 30.8942C4.54283 31.3207 4.40494 31.9442 4.46308 32.5287C5.18266 33.2174 5.65785 33.1993 6.48223 33.2979H15.0396C15.7627 33.2271 15.8555 33.1452 16.0972 33.0095C16.3902 32.7097 16.493 32.4974 16.578 32.048C16.488 31.4918 16.4087 31.3175 16.2895 30.9903L16.0972 30.798C16.1282 30.7402 15.7957 30.6634 15.0396 30.7019C13.9363 30.5617 13.3434 30.4682 12.9243 29.9327C12.4372 29.431 12.2668 29.159 12.0589 28.6827C12.0182 27.897 12.0266 27.656 12.0589 27.3366C12.0984 26.6662 12.2352 26.228 12.5397 25.4136L14.3665 21.4715C14.8286 20.358 14.8364 20.1 14.8473 19.6446C14.8313 19.1819 14.7774 18.8175 14.655 18.1062C14.177 17.295 13.9007 17.1332 13.405 16.9524C13.2787 16.9036 12.7148 18.1649 10.4244 23.7791C9.47602 22.8458 9.46441 19.0335 9.65517 10.895C12.5743 14.3146 15.5251 18.4532 21.0008 25.1252C21.7789 24.6342 22.1297 24.3603 22.5392 23.8752C23.0205 23.2059 23.1111 22.8869 23.2123 22.3368C23.3063 21.6948 23.2773 21.3837 23.1161 20.8946C22.8554 19.9312 22.588 19.4705 22.0585 18.6831H21.4816C20.7185 18.6574 19.8423 17.6459 17.8279 14.8371C17.4041 14.0282 17.5828 13.5209 17.8279 12.6257C18.272 11.2199 18.5647 10.7466 19.0778 9.83735L26.0968 26.8559C26.4474 27.946 26.6002 28.4777 26.6737 29.0673C26.7026 29.7504 26.6977 29.9369 26.6737 30.125C25.2857 30.3699 24.4779 30.5215 22.8277 30.8942C22.6548 31.5325 22.7778 31.8904 22.8277 32.5287C23.195 33.0281 23.4032 33.2516 23.7892 33.2979H37.154L37.3463 33.1056C37.5181 32.8168 37.5984 32.6316 37.6348 32.1441C37.6438 31.5479 37.6174 31.3371 37.5386 31.0865C37.3457 30.8789 37.2168 30.7753 36.9617 30.6057H35.6156C35.029 30.4556 34.69 30.1319 34.0772 29.3558C33.6881 28.4297 33.4932 27.8372 33.2119 26.5674H40.9039V25.7021C40.8434 25.0851 40.6943 24.9629 40.4348 24.7501L40.4231 24.7406L39.6539 24.4521C39.1317 24.1844 38.9473 23.5511 38.7886 21.6638V9.45275C39.0709 9.19027 39.2404 9.11375 39.5578 9.06816C39.9652 9.06189 40.1172 9.06287 40.327 9.06816C40.6584 8.65582 40.8382 8.42131 41 7.91436C40.5001 7.49137 39.9585 7.3584 38.6924 7.24131L31.6735 7.33746C30.8512 7.50474 30.4541 7.63104 29.8466 7.91436C28.4314 9.55959 28.133 9.90971 27.6589 10.466L27.539 10.6066C27.6064 12.3958 28.0409 13.2893 28.9813 14.8371L32.3465 10.895V23.0099C32.3127 23.459 32.2056 23.5025 32.0581 23.6829C31.994 23.715 31.8465 23.7791 31.7696 23.7791C27.6468 12.9992 23.3594 2.02845 22.2508 0.703125H20.3278C19.9551 0.787246 19.7657 0.929549 19.4625 1.37617L15.2319 11.7603C14.1606 10.2659 13.5331 9.42651 12.1551 7.91436C11.6569 7.58771 11.3741 7.40682 10.6167 7.24131C6.49994 7.07955 3.40549 7.03866 2.15551 7.43361Z" fill="white" stroke="white" stroke-width="0.2394" stroke-linejoin="round"/>
</svg>
