<svg width="20" height="17" viewBox="0 0 20 17" fill="none" xmlns="http://www.w3.org/2000/svg">
<path d="M13.941 0.984375C12.1895 0.984375 10.6559 1.72455 9.69995 2.97568C8.74401 1.72455 7.21044 0.984375 5.45888 0.984375C4.06461 0.985919 2.72789 1.53089 1.74199 2.49972C0.756091 3.46855 0.201523 4.78213 0.199951 6.15226C0.199951 11.987 9.00357 16.7098 9.37848 16.9048C9.47729 16.957 9.58775 16.9844 9.69995 16.9844C9.81216 16.9844 9.92261 16.957 10.0214 16.9048C10.3963 16.7098 19.2 11.987 19.2 6.15226C19.1984 4.78213 18.6438 3.46855 17.6579 2.49972C16.672 1.53089 15.3353 0.985919 13.941 0.984375ZM9.69995 15.5545C8.15111 14.6676 1.55709 10.6275 1.55709 6.15226C1.55844 5.13576 1.96995 4.16128 2.70139 3.44251C3.43282 2.72373 4.42448 2.31935 5.45888 2.31802C7.10866 2.31802 8.49379 3.18156 9.07227 4.56855C9.1234 4.69086 9.21037 4.79546 9.32213 4.86908C9.43389 4.9427 9.5654 4.98201 9.69995 4.98201C9.8345 4.98201 9.96601 4.9427 10.0778 4.86908C10.1895 4.79546 10.2765 4.69086 10.3276 4.56855C10.9061 3.17906 12.2912 2.31802 13.941 2.31802C14.9754 2.31935 15.9671 2.72373 16.6985 3.44251C17.43 4.16128 17.8415 5.13576 17.8428 6.15226C17.8428 10.6208 11.2471 14.6668 9.69995 15.5545Z" fill="#6A0DAD"/>
</svg>
