<svg width="121" height="121" viewBox="0 0 121 121" fill="none" xmlns="http://www.w3.org/2000/svg">
<rect x="2.5" y="2.13281" width="116" height="116" rx="58" stroke="#6A0DAD" stroke-width="4"/>
<path d="M31.8755 44.2072V76.683L60.1878 88.1328M31.8755 44.2072L60.1878 54.6161M31.8755 44.2072L41.4517 40.1232M60.1878 88.1328V54.6161M60.1878 88.1328L89.1246 76.683V44.2072M60.1878 54.6161L70.1803 50.8689M89.1246 44.2072L60.1878 32.1328L51.0279 36.0392M89.1246 44.2072L79.9647 47.7462M70.1803 50.8689V63.3596L75.3848 58.5715L79.9647 59.8205V47.7462M70.1803 50.8689L41.4517 40.1232M79.9647 47.7462L51.0279 36.0392M51.0279 36.0392L41.4517 40.1232" stroke="#6A0DAD" stroke-width="3" stroke-linejoin="round"/>
</svg>
