<svg width="65" height="65" viewBox="0 0 65 65" fill="none" xmlns="http://www.w3.org/2000/svg">
<rect x="0.5" y="0.132812" width="64" height="64" rx="32" fill="#F4DC03" fill-opacity="0.7"/>
<g clip-path="url(#clip0_1_1572)">
<path d="M47.5 17.1328C40.5 14.1328 32.5 14.1328 32.5 14.1328C32.5 14.1328 24.5 14.1328 17.5 17.1328C14.5 32.1328 17.5 45.1328 32.5 50.1328C47.5 45.1328 50.5 32.1328 47.5 17.1328Z" fill="#CCD6DD"/>
<path d="M32.5 48.0168C20.912 43.8618 16.461 33.9638 19.26 18.5768C25.563 16.1618 32.428 16.1328 32.5 16.1328C32.571 16.1328 39.458 16.1728 45.74 18.5768C48.539 33.9638 44.088 43.8618 32.5 48.0168Z" fill="#55ACEE"/>
<path d="M45.74 18.5768C39.458 16.1728 32.571 16.1328 32.5 16.1328V48.0168C44.088 43.8618 48.539 33.9638 45.74 18.5768Z" fill="#226699"/>
</g>
<defs>
<clipPath id="clip0_1_1572">
<rect width="36" height="36" fill="white" transform="translate(14.5 14.1328)"/>
</clipPath>
</defs>
</svg>
