<svg width="64" height="65" viewBox="0 0 64 65" fill="none" xmlns="http://www.w3.org/2000/svg">
<rect y="0.132812" width="64" height="64" rx="32" fill="#F4DC03" fill-opacity="0.7"/>
<path d="M27.085 32.1328C25.6386 32.1775 24.4556 32.7489 23.5359 33.8471H21.7413C21.0091 33.8471 20.3931 33.6663 19.8931 33.3047C19.3931 32.9431 19.1431 32.4141 19.1431 31.7176C19.1431 28.5658 19.6966 26.99 20.8038 26.99C20.8574 26.99 21.0515 27.0837 21.3864 27.2712C21.7212 27.4587 22.1565 27.6484 22.6922 27.8404C23.2279 28.0324 23.7591 28.1283 24.2859 28.1283C24.8841 28.1283 25.4779 28.0257 26.0672 27.8203C26.0225 28.1507 26.0002 28.4453 26.0002 28.7042C26.0002 29.9453 26.3618 31.0882 27.085 32.1328ZM41.4288 40.6641C41.4288 41.7355 41.1029 42.5815 40.4511 43.202C39.7993 43.8225 38.9332 44.1328 37.8529 44.1328H26.1475C25.0672 44.1328 24.2011 43.8225 23.5493 43.202C22.8975 42.5815 22.5716 41.7355 22.5716 40.6641C22.5716 40.1908 22.5873 39.7288 22.6185 39.2779C22.6498 38.827 22.7123 38.3404 22.806 37.8181C22.8998 37.2958 23.0181 36.8114 23.1609 36.365C23.3038 35.9185 23.4957 35.4833 23.7368 35.0592C23.9779 34.635 24.2547 34.2734 24.5672 33.9743C24.8797 33.6752 25.2614 33.4364 25.7123 33.2578C26.1632 33.0792 26.6609 32.99 27.2056 32.99C27.2949 32.99 27.4868 33.0859 27.7815 33.2779C28.0761 33.4699 28.402 33.6842 28.7591 33.9208C29.1163 34.1574 29.594 34.3717 30.1922 34.5636C30.7904 34.7556 31.3931 34.8516 32.0002 34.8516C32.6074 34.8516 33.21 34.7556 33.8082 34.5636C34.4065 34.3717 34.8841 34.1574 35.2413 33.9208C35.5984 33.6842 35.9243 33.4699 36.219 33.2779C36.5136 33.0859 36.7056 32.99 36.7949 32.99C37.3395 32.99 37.8373 33.0792 38.2882 33.2578C38.739 33.4364 39.1207 33.6752 39.4332 33.9743C39.7457 34.2734 40.0225 34.635 40.2636 35.0592C40.5047 35.4833 40.6966 35.9185 40.8395 36.365C40.9824 36.8114 41.1007 37.2958 41.1944 37.8181C41.2882 38.3404 41.3507 38.827 41.3819 39.2779C41.4132 39.7288 41.4288 40.1908 41.4288 40.6641ZM27.7145 23.5614C27.7145 24.5078 27.3797 25.3158 26.71 25.9855C26.0404 26.6551 25.2324 26.99 24.2859 26.99C23.3395 26.99 22.5315 26.6551 21.8618 25.9855C21.1922 25.3158 20.8574 24.5078 20.8574 23.5614C20.8574 22.615 21.1922 21.8069 21.8618 21.1373C22.5315 20.4676 23.3395 20.1328 24.2859 20.1328C25.2324 20.1328 26.0404 20.4676 26.71 21.1373C27.3797 21.8069 27.7145 22.615 27.7145 23.5614ZM37.1431 28.7042C37.1431 30.1239 36.6408 31.3359 35.6364 32.3404C34.6319 33.3449 33.4199 33.8471 32.0002 33.8471C30.5806 33.8471 29.3685 33.3449 28.364 32.3404C27.3596 31.3359 26.8574 30.1239 26.8574 28.7042C26.8574 27.2846 27.3596 26.0725 28.364 25.0681C29.3685 24.0636 30.5806 23.5614 32.0002 23.5614C33.4199 23.5614 34.6319 24.0636 35.6364 25.0681C36.6408 26.0725 37.1431 27.2846 37.1431 28.7042ZM44.8574 31.7176C44.8574 32.4141 44.6074 32.9431 44.1074 33.3047C43.6074 33.6663 42.9913 33.8471 42.2591 33.8471H40.4645C39.5449 32.7489 38.3618 32.1775 36.9154 32.1328C37.6386 31.0882 38.0002 29.9453 38.0002 28.7042C38.0002 28.4453 37.9779 28.1507 37.9332 27.8203C38.5225 28.0257 39.1163 28.1283 39.7145 28.1283C40.2413 28.1283 40.7725 28.0324 41.3082 27.8404C41.844 27.6484 42.2792 27.4587 42.614 27.2712C42.9489 27.0837 43.1431 26.99 43.1966 26.99C44.3038 26.99 44.8574 28.5658 44.8574 31.7176ZM43.1431 23.5614C43.1431 24.5078 42.8082 25.3158 42.1386 25.9855C41.469 26.6551 40.6609 26.99 39.7145 26.99C38.7681 26.99 37.96 26.6551 37.2904 25.9855C36.6207 25.3158 36.2859 24.5078 36.2859 23.5614C36.2859 22.615 36.6207 21.8069 37.2904 21.1373C37.96 20.4676 38.7681 20.1328 39.7145 20.1328C40.6609 20.1328 41.469 20.4676 42.1386 21.1373C42.8082 21.8069 43.1431 22.615 43.1431 23.5614Z" fill="#6A0DAD"/>
</svg>
