<svg width="48" height="48" viewBox="0 0 48 48" fill="none" xmlns="http://www.w3.org/2000/svg">
<path d="M32.1216 43.0904C32.6841 42.5278 33 41.7649 33 40.9694C33 40.1739 32.6841 39.411 32.1216 38.8484L17.2716 23.9984L32.1216 9.14839C32.6681 8.58258 32.9705 7.82478 32.9637 7.03819C32.9568 6.25159 32.6413 5.49916 32.0851 4.94293C31.5289 4.38671 30.7764 4.07121 29.9898 4.06437C29.2033 4.05753 28.4454 4.35992 27.8796 4.90639L10.9086 21.8774C10.3462 22.44 10.0303 23.2029 10.0303 23.9984C10.0303 24.7939 10.3462 25.5568 10.9086 26.1194L27.8796 43.0904C28.4422 43.6528 29.2051 43.9688 30.0006 43.9688C30.7961 43.9688 31.5591 43.6528 32.1216 43.0904Z" fill="#A2A2A2"/>
</svg>
