<svg width="18" height="12" viewBox="0 0 18 12" fill="none" xmlns="http://www.w3.org/2000/svg">
<path d="M8.43925 11.1965L0.213914 1.93899C0.0766005 1.78452 0 1.5793 0 1.3659C0 1.15249 0.0766005 0.947276 0.213914 0.79281L0.223208 0.782843C0.289775 0.707702 0.3699 0.647868 0.458711 0.606982C0.547521 0.566095 0.64316 0.545011 0.739808 0.545011C0.836457 0.545011 0.932096 0.566095 1.02091 0.606982C1.10972 0.647868 1.18984 0.707702 1.25641 0.782843L9.00155 9.50045L16.7436 0.782843C16.8102 0.707702 16.8903 0.647868 16.9791 0.606982C17.0679 0.566095 17.1635 0.545011 17.2602 0.545011C17.3568 0.545011 17.4525 0.566095 17.5413 0.606982C17.6301 0.647868 17.7102 0.707702 17.7768 0.782843L17.7861 0.79281C17.9234 0.947276 18 1.15249 18 1.3659C18 1.5793 17.9234 1.78452 17.7861 1.93899L9.56075 11.1965C9.48841 11.2779 9.40141 11.3427 9.30502 11.387C9.20863 11.4313 9.10486 11.4541 9 11.4541C8.89513 11.4541 8.79136 11.4313 8.69497 11.387C8.59859 11.3427 8.51159 11.2779 8.43925 11.1965Z" fill="#161616"/>
</svg>
