<svg width="29" height="25" viewBox="0 0 29 25" fill="none" xmlns="http://www.w3.org/2000/svg">
<path d="M20.2969 0.738281C17.7156 0.738281 15.4556 1.84828 14.0469 3.72453C12.6381 1.84828 10.3781 0.738281 7.79688 0.738281C5.74216 0.740597 3.77226 1.55786 2.31936 3.01076C0.86645 4.46367 0.0491909 6.43356 0.046875 8.48828C0.046875 17.2383 13.0206 24.3208 13.5731 24.6133C13.7187 24.6916 13.8815 24.7326 14.0469 24.7326C14.2122 24.7326 14.375 24.6916 14.5206 24.6133C15.0731 24.3208 28.0469 17.2383 28.0469 8.48828C28.0446 6.43356 27.2273 4.46367 25.7744 3.01076C24.3215 1.55786 22.3516 0.740597 20.2969 0.738281ZM14.0469 22.5883C11.7644 21.2583 2.04688 15.1995 2.04688 8.48828C2.04886 6.9639 2.6553 5.50251 3.7332 4.42461C4.81111 3.3467 6.27249 2.74027 7.79688 2.73828C10.2281 2.73828 12.2694 4.03328 13.1219 6.11328C13.1972 6.29669 13.3254 6.45357 13.4901 6.56397C13.6548 6.67437 13.8486 6.73331 14.0469 6.73331C14.2452 6.73331 14.439 6.67437 14.6037 6.56397C14.7684 6.45357 14.8965 6.29669 14.9719 6.11328C15.8244 4.02953 17.8656 2.73828 20.2969 2.73828C21.8213 2.74027 23.2826 3.3467 24.3605 4.42461C25.4385 5.50251 26.0449 6.9639 26.0469 8.48828C26.0469 15.1895 16.3269 21.257 14.0469 22.5883Z" fill="#CA0202"/>
</svg>
