<svg width="7" height="12" viewBox="0 0 7 12" fill="none" xmlns="http://www.w3.org/2000/svg">
<path d="M6.35354 6.35403L1.35354 11.354C1.30708 11.4005 1.25193 11.4373 1.19124 11.4625C1.13054 11.4876 1.06549 11.5006 0.99979 11.5006C0.934092 11.5006 0.869038 11.4876 0.808342 11.4625C0.747645 11.4373 0.692495 11.4005 0.646039 11.354C0.599584 11.3076 0.562734 11.2524 0.537593 11.1917C0.512452 11.131 0.499512 11.066 0.499512 11.0003C0.499512 10.9346 0.512452 10.8695 0.537593 10.8088C0.562734 10.7481 0.599584 10.693 0.646039 10.6465L5.29291 6.00028L0.646039 1.35403C0.552219 1.26021 0.499512 1.13296 0.499512 1.00028C0.499512 0.867596 0.552219 0.740348 0.646039 0.646528C0.73986 0.552708 0.867108 0.5 0.99979 0.5C1.13247 0.5 1.25972 0.552708 1.35354 0.646528L6.35354 5.64653C6.40003 5.69296 6.43691 5.74811 6.46207 5.80881C6.48723 5.86951 6.50018 5.93457 6.50018 6.00028C6.50018 6.06599 6.48723 6.13105 6.46207 6.19175C6.43691 6.25245 6.40003 6.30759 6.35354 6.35403Z" fill="black"/>
<path d="M6.35354 6.35403L1.35354 11.354C1.30708 11.4005 1.25193 11.4373 1.19124 11.4625C1.13054 11.4876 1.06549 11.5006 0.99979 11.5006C0.934092 11.5006 0.869038 11.4876 0.808342 11.4625C0.747645 11.4373 0.692495 11.4005 0.646039 11.354C0.599584 11.3076 0.562734 11.2524 0.537593 11.1917C0.512452 11.131 0.499512 11.066 0.499512 11.0003C0.499512 10.9346 0.512452 10.8695 0.537593 10.8088C0.562734 10.7481 0.599584 10.693 0.646039 10.6465L5.29291 6.00028L0.646039 1.35403C0.552219 1.26021 0.499512 1.13296 0.499512 1.00028C0.499512 0.867596 0.552219 0.740348 0.646039 0.646528C0.73986 0.552708 0.867108 0.5 0.99979 0.5C1.13247 0.5 1.25972 0.552708 1.35354 0.646528L6.35354 5.64653C6.40003 5.69296 6.43691 5.74811 6.46207 5.80881C6.48723 5.86951 6.50018 5.93457 6.50018 6.00028C6.50018 6.06599 6.48723 6.13105 6.46207 6.19175C6.43691 6.25245 6.40003 6.30759 6.35354 6.35403Z" fill="white" fill-opacity="0.88"/>
</svg>
