<svg width="13" height="12" viewBox="0 0 13 12" fill="none" xmlns="http://www.w3.org/2000/svg">
<path d="M6.04688 0C6.17948 0 6.30666 0.0526781 6.40043 0.146446C6.4942 0.240214 6.54688 0.367392 6.54688 0.5L6.54688 5.5L11.5469 5.5C11.6795 5.5 11.8067 5.55268 11.9004 5.64645C11.9942 5.74021 12.0469 5.86739 12.0469 6C12.0469 6.13261 11.9942 6.25979 11.9004 6.35355C11.8067 6.44732 11.6795 6.5 11.5469 6.5L6.54688 6.5L6.54688 11.5C6.54688 11.6326 6.4942 11.7598 6.40043 11.8536C6.30666 11.9473 6.17948 12 6.04688 12C5.91427 12 5.78709 11.9473 5.69332 11.8536C5.59955 11.7598 5.54688 11.6326 5.54688 11.5L5.54688 6.5L0.546875 6.5C0.414267 6.5 0.28709 6.44732 0.193322 6.35355C0.0995535 6.25979 0.046875 6.13261 0.046875 6C0.046875 5.86739 0.0995535 5.74021 0.193322 5.64645C0.28709 5.55268 0.414267 5.5 0.546875 5.5L5.54688 5.5L5.54688 0.5C5.54688 0.367392 5.59955 0.240214 5.69332 0.146446C5.78709 0.0526781 5.91427 0 6.04688 0Z" fill="white"/>
</svg>
