<svg width="17" height="480" viewBox="0 0 17 480" fill="none" xmlns="http://www.w3.org/2000/svg">
<line x1="9" y1="2.18557e-08" x2="9" y2="16" stroke="black"/>
<line x1="9" y1="2.18557e-08" x2="9" y2="16" stroke="white" stroke-opacity="0.88"/>
<circle cx="8.5" cy="24" r="8" fill="black"/>
<circle cx="8.5" cy="24" r="8" fill="white" fill-opacity="0.88"/>
<line x1="9" y1="32" x2="9" y2="80" stroke="black"/>
<line x1="9" y1="32" x2="9" y2="80" stroke="white" stroke-opacity="0.88"/>
<circle cx="8.5" cy="88" r="8" fill="black"/>
<circle cx="8.5" cy="88" r="8" fill="white" fill-opacity="0.88"/>
<line x1="9" y1="96" x2="9" y2="144" stroke="black"/>
<line x1="9" y1="96" x2="9" y2="144" stroke="white" stroke-opacity="0.88"/>
<circle cx="8.5" cy="152" r="8" fill="black"/>
<circle cx="8.5" cy="152" r="8" fill="white" fill-opacity="0.88"/>
<line x1="9" y1="160" x2="9" y2="208" stroke="black"/>
<line x1="9" y1="160" x2="9" y2="208" stroke="white" stroke-opacity="0.88"/>
<circle cx="8.5" cy="216" r="8" fill="black"/>
<circle cx="8.5" cy="216" r="8" fill="white" fill-opacity="0.88"/>
<line x1="9" y1="224" x2="9" y2="272" stroke="black"/>
<line x1="9" y1="224" x2="9" y2="272" stroke="white" stroke-opacity="0.88"/>
<circle cx="8.5" cy="280" r="8" fill="black"/>
<circle cx="8.5" cy="280" r="8" fill="white" fill-opacity="0.88"/>
<line x1="9" y1="288" x2="9" y2="336" stroke="black"/>
<line x1="9" y1="288" x2="9" y2="336" stroke="white" stroke-opacity="0.88"/>
<circle cx="8.5" cy="344" r="8" fill="black"/>
<circle cx="8.5" cy="344" r="8" fill="white" fill-opacity="0.88"/>
<line x1="9" y1="352" x2="9" y2="400" stroke="black"/>
<line x1="9" y1="352" x2="9" y2="400" stroke="white" stroke-opacity="0.88"/>
<circle cx="8.5" cy="408" r="8" fill="black"/>
<circle cx="8.5" cy="408" r="8" fill="white" fill-opacity="0.88"/>
<line x1="9" y1="416" x2="9" y2="464" stroke="black"/>
<line x1="9" y1="416" x2="9" y2="464" stroke="white" stroke-opacity="0.88"/>
<circle cx="8.5" cy="472" r="8" fill="black"/>
<circle cx="8.5" cy="472" r="8" fill="white" fill-opacity="0.88"/>
</svg>
