<svg width="19" height="16" viewBox="0 0 19 16" fill="none" xmlns="http://www.w3.org/2000/svg">
<path d="M17.8952 8.08278L11.1017 14.8763C10.96 15.0179 10.7679 15.0975 10.5676 15.0975C10.3673 15.0975 10.1752 15.0179 10.0336 14.8763C9.89196 14.7346 9.81239 14.5425 9.81239 14.3422C9.81239 14.1419 9.89196 13.9498 10.0336 13.8082L15.5392 8.30357H0.754832C0.554638 8.30357 0.362644 8.22404 0.221085 8.08248C0.0795268 7.94093 0 7.74893 0 7.54874C0 7.34854 0.0795268 7.15655 0.221085 7.01499C0.362644 6.87343 0.554638 6.7939 0.754832 6.7939H15.5392L10.0336 1.28929C9.89196 1.14766 9.81239 0.955556 9.81239 0.755251C9.81239 0.554946 9.89196 0.362845 10.0336 0.221208C10.1752 0.0795708 10.3673 0 10.5676 0C10.7679 0 10.96 0.0795708 11.1017 0.221208L17.8952 7.01469C17.9654 7.0848 18.021 7.16805 18.059 7.25968C18.097 7.35132 18.1166 7.44954 18.1166 7.54874C18.1166 7.64793 18.097 7.74616 18.059 7.83779C18.021 7.92943 17.9654 8.01268 17.8952 8.08278Z" fill="#FF715B"/>
</svg>
