<svg width="22" height="16" viewBox="0 0 22 16" fill="none" xmlns="http://www.w3.org/2000/svg">
<path d="M20.0469 0.5H2.04688C1.64905 0.5 1.26752 0.658035 0.986215 0.93934C0.70491 1.22064 0.546875 1.60218 0.546875 2V14C0.546875 14.3978 0.70491 14.7794 0.986215 15.0607C1.26752 15.342 1.64905 15.5 2.04688 15.5H20.0469C20.4447 15.5 20.8262 15.342 21.1075 15.0607C21.3888 14.7794 21.5469 14.3978 21.5469 14V2C21.5469 1.60218 21.3888 1.22064 21.1075 0.93934C20.8262 0.658035 20.4447 0.5 20.0469 0.5ZM11.7969 12.5H10.2969C10.098 12.5 9.9072 12.421 9.76655 12.2803C9.62589 12.1397 9.54688 11.9489 9.54688 11.75C9.54688 11.5511 9.62589 11.3603 9.76655 11.2197C9.9072 11.079 10.098 11 10.2969 11H11.7969C11.9958 11 12.1866 11.079 12.3272 11.2197C12.4679 11.3603 12.5469 11.5511 12.5469 11.75C12.5469 11.9489 12.4679 12.1397 12.3272 12.2803C12.1866 12.421 11.9958 12.5 11.7969 12.5ZM17.7969 12.5H14.7969C14.598 12.5 14.4072 12.421 14.2665 12.2803C14.1259 12.1397 14.0469 11.9489 14.0469 11.75C14.0469 11.5511 14.1259 11.3603 14.2665 11.2197C14.4072 11.079 14.598 11 14.7969 11H17.7969C17.9958 11 18.1866 11.079 18.3272 11.2197C18.4679 11.3603 18.5469 11.5511 18.5469 11.75C18.5469 11.9489 18.4679 12.1397 18.3272 12.2803C18.1866 12.421 17.9958 12.5 17.7969 12.5ZM2.04688 4.25V2H20.0469V4.25H2.04688Z" fill="#FFAC06"/>
</svg>
