<svg width="19" height="20" viewBox="0 0 19 20" fill="none" xmlns="http://www.w3.org/2000/svg">
<path d="M16.5469 0.75H1.54688C1.14905 0.75 0.767519 0.908035 0.486215 1.18934C0.20491 1.47064 0.046875 1.85218 0.046875 2.25V7.5C0.046875 12.4425 2.43937 15.4378 4.44656 17.0803C6.60844 18.8484 8.75906 19.4484 8.85281 19.4738C8.98172 19.5088 9.11766 19.5088 9.24656 19.4738C9.34031 19.4484 11.4881 18.8484 13.6528 17.0803C15.6544 15.4378 18.0469 12.4425 18.0469 7.5V2.25C18.0469 1.85218 17.8888 1.47064 17.6075 1.18934C17.3262 0.908035 16.9447 0.75 16.5469 0.75ZM13.3294 7.28063L8.07938 12.5306C8.00972 12.6004 7.927 12.6557 7.83596 12.6934C7.74491 12.7312 7.64731 12.7506 7.54875 12.7506C7.45019 12.7506 7.35259 12.7312 7.26154 12.6934C7.1705 12.6557 7.08778 12.6004 7.01813 12.5306L4.76813 10.2806C4.62739 10.1399 4.54833 9.94902 4.54833 9.75C4.54833 9.55098 4.62739 9.36011 4.76813 9.21937C4.90886 9.07864 5.09973 8.99958 5.29875 8.99958C5.49777 8.99958 5.68864 9.07864 5.82938 9.21937L7.54688 10.9397L12.2662 6.21937C12.3359 6.14969 12.4187 6.09442 12.5097 6.0567C12.6007 6.01899 12.6983 5.99958 12.7969 5.99958C12.8954 5.99958 12.993 6.01899 13.084 6.0567C13.1751 6.09442 13.2578 6.14969 13.3275 6.21937C13.3972 6.28906 13.4525 6.37178 13.4902 6.46283C13.5279 6.55387 13.5473 6.65145 13.5473 6.75C13.5473 6.84855 13.5279 6.94613 13.4902 7.03717C13.4525 7.12822 13.3972 7.21094 13.3275 7.28063H13.3294Z" fill="#2D7565"/>
</svg>
