<svg width="25" height="29" viewBox="0 0 25 29" fill="none" xmlns="http://www.w3.org/2000/svg">
<path d="M19.0467 18.7384C18.3796 18.7382 17.7193 18.8718 17.1048 19.1314C16.4903 19.391 15.9341 19.7712 15.4692 20.2496L9.70669 16.5459C10.16 15.3835 10.16 14.0933 9.70669 12.9309L15.4692 9.22713C16.3348 10.1138 17.4987 10.6474 18.7354 10.7247C19.9721 10.8019 21.1934 10.4172 22.1625 9.64506C23.1317 8.87297 23.7796 7.76853 23.9807 6.54586C24.1818 5.3232 23.9218 4.06941 23.251 3.02759C22.5802 1.98577 21.5464 1.23014 20.3502 0.90719C19.1539 0.584243 17.8803 0.716991 16.7764 1.2797C15.6724 1.8424 14.8167 2.79498 14.3752 3.95274C13.9337 5.1105 13.9378 6.39097 14.3867 7.54588L8.62419 11.2496C7.93027 10.5372 7.03967 10.0479 6.06624 9.84431C5.0928 9.64068 4.08075 9.73197 3.15947 10.1065C2.23818 10.481 1.44952 11.1218 0.894285 11.9469C0.339052 12.772 0.0424805 13.7439 0.0424805 14.7384C0.0424805 15.7329 0.339052 16.7048 0.894285 17.5299C1.44952 18.355 2.23818 18.9957 3.15947 19.3703C4.08075 19.7448 5.0928 19.8361 6.06624 19.6324C7.03967 19.4288 7.93027 18.9395 8.62419 18.2271L14.3867 21.9309C14.0007 22.9265 13.9435 24.0196 14.2237 25.0501C14.5038 26.0806 15.1066 26.9943 15.9436 27.6574C16.7806 28.3206 17.8079 28.6983 18.8752 28.7354C19.9424 28.7724 20.9935 28.4668 21.8744 27.8632C22.7554 27.2597 23.42 26.39 23.7709 25.3814C24.1218 24.3728 24.1406 23.2784 23.8245 22.2583C23.5084 21.2383 22.874 20.3463 22.0143 19.7129C21.1545 19.0795 20.1146 18.738 19.0467 18.7384ZM19.0467 2.73838C19.64 2.73838 20.2201 2.91433 20.7134 3.24397C21.2067 3.57361 21.5913 4.04215 21.8183 4.59033C22.0454 5.13851 22.1048 5.74171 21.989 6.32365C21.8733 6.90559 21.5876 7.44014 21.168 7.8597C20.7485 8.27926 20.2139 8.56498 19.632 8.68074C19.05 8.79649 18.4468 8.73708 17.8986 8.51002C17.3505 8.28296 16.8819 7.89844 16.5523 7.40509C16.2226 6.91174 16.0467 6.33172 16.0467 5.73838C16.0467 4.94273 16.3628 4.17967 16.9254 3.61706C17.488 3.05445 18.251 2.73838 19.0467 2.73838ZM5.04669 17.7384C4.45334 17.7384 3.87332 17.5624 3.37998 17.2328C2.88663 16.9031 2.50211 16.4346 2.27505 15.8864C2.04799 15.3383 1.98858 14.7351 2.10433 14.1531C2.22009 13.5712 2.50581 13.0366 2.92537 12.6171C3.34493 12.1975 3.87947 11.9118 4.46142 11.796C5.04336 11.6803 5.64656 11.7397 6.19474 11.9667C6.74292 12.1938 7.21145 12.5783 7.5411 13.0717C7.87074 13.565 8.04669 14.145 8.04669 14.7384C8.04669 15.534 7.73062 16.2971 7.16801 16.8597C6.6054 17.4223 5.84234 17.7384 5.04669 17.7384ZM19.0467 26.7384C18.4533 26.7384 17.8733 26.5624 17.38 26.2328C16.8866 25.9031 16.5021 25.4346 16.2751 24.8864C16.048 24.3383 15.9886 23.7351 16.1043 23.1531C16.2201 22.5712 16.5058 22.0366 16.9254 21.6171C17.3449 21.1975 17.8795 20.9118 18.4614 20.796C19.0434 20.6803 19.6466 20.7397 20.1947 20.9667C20.7429 21.1938 21.2115 21.5783 21.5411 22.0717C21.8707 22.565 22.0467 23.145 22.0467 23.7384C22.0467 24.534 21.7306 25.2971 21.168 25.8597C20.6054 26.4223 19.8423 26.7384 19.0467 26.7384Z" fill="#947FFF"/>
</svg>
