<svg width="9" height="15" viewBox="0 0 9 15" fill="none" xmlns="http://www.w3.org/2000/svg">
<path d="M8.23892 8.18082L1.98892 14.4308C1.93085 14.4889 1.86192 14.5349 1.78604 14.5664C1.71017 14.5978 1.62886 14.614 1.54673 14.614C1.46461 14.614 1.38329 14.5978 1.30742 14.5664C1.23155 14.5349 1.16262 14.4889 1.10455 14.4308C1.04648 14.3727 1.00041 14.3038 0.968988 14.2279C0.937562 14.1521 0.921387 14.0708 0.921387 13.9886C0.921387 13.9065 0.937562 13.8252 0.968988 13.7493C1.00041 13.6734 1.04648 13.6045 1.10455 13.5464L6.91314 7.73863L1.10455 1.93082C0.987271 1.81354 0.921387 1.65448 0.921387 1.48863C0.921387 1.32278 0.987271 1.16372 1.10455 1.04644C1.22182 0.929166 1.38088 0.863281 1.54673 0.863281C1.71259 0.863281 1.87165 0.929166 1.98892 1.04644L8.23892 7.29644C8.29703 7.35449 8.34313 7.42342 8.37458 7.49929C8.40604 7.57516 8.42223 7.65649 8.42223 7.73863C8.42223 7.82076 8.40604 7.90209 8.37458 7.97797C8.34313 8.05384 8.29703 8.12277 8.23892 8.18082Z" fill="black"/>
</svg>
