<svg width="19" height="20" viewBox="0 0 19 20" fill="none" xmlns="http://www.w3.org/2000/svg">
<path d="M6.79395 0.0625H11.3223C11.9063 0.0625 12.4669 0.294094 12.8799 0.707031C13.2928 1.11999 13.5244 1.68064 13.5244 2.26465V3.08203H17.3613C17.5448 3.08208 17.7208 3.15455 17.8506 3.28418C17.9804 3.41402 18.0537 3.5908 18.0537 3.77441C18.0536 3.95794 17.9804 4.13389 17.8506 4.26367C17.7208 4.39344 17.5449 4.46674 17.3613 4.4668H16.5439V18.1162C16.5439 18.4999 16.3915 18.8683 16.1201 19.1396C15.8487 19.411 15.4804 19.5635 15.0967 19.5635H3.01953C2.63583 19.5635 2.26747 19.4109 1.99609 19.1396C1.72476 18.8683 1.57233 18.4999 1.57227 18.1162V4.4668H0.754883C0.571337 4.4668 0.395448 4.39341 0.265625 4.26367C0.135848 4.13389 0.0625676 3.95794 0.0625 3.77441C0.0625 3.5908 0.135788 3.41402 0.265625 3.28418C0.395425 3.15458 0.571447 3.08203 0.754883 3.08203H4.5918V2.26465C4.5918 1.68064 4.82337 1.11999 5.23633 0.707031C5.64927 0.294173 6.21001 0.0625 6.79395 0.0625ZM2.95703 18.1787H15.1592V4.4668H2.95703V18.1787ZM6.79395 7.61035C6.9774 7.61047 7.15347 7.68375 7.2832 7.81348C7.41293 7.94321 7.48524 8.11928 7.48535 8.30273V14.3418C7.48535 14.5253 7.41289 14.7012 7.2832 14.8311C7.15347 14.9608 6.9774 15.0341 6.79395 15.0342C6.61033 15.0342 6.43355 14.9609 6.30371 14.8311C6.17404 14.7012 6.10156 14.5253 6.10156 14.3418V8.30273C6.10167 8.11929 6.174 7.94321 6.30371 7.81348C6.43355 7.68364 6.61033 7.61035 6.79395 7.61035ZM11.3223 7.61035C11.5059 7.61035 11.6827 7.68364 11.8125 7.81348C11.9421 7.9432 12.0145 8.11935 12.0146 8.30273V14.3418C12.0146 14.5252 11.9421 14.7013 11.8125 14.8311C11.6827 14.9609 11.5059 15.0342 11.3223 15.0342C11.1387 15.0341 10.9628 14.9608 10.833 14.8311C10.7032 14.7012 10.6299 14.5254 10.6299 14.3418V8.30273C10.63 8.11927 10.7033 7.94322 10.833 7.81348C10.9628 7.68375 11.1388 7.61041 11.3223 7.61035ZM6.79395 1.44727C6.57725 1.44727 6.36909 1.53334 6.21582 1.68652C6.06254 1.8398 5.97656 2.04788 5.97656 2.26465V3.08203H12.1396V2.26465C12.1396 2.04788 12.0537 1.8398 11.9004 1.68652C11.7471 1.53326 11.539 1.44727 11.3223 1.44727H6.79395Z" fill="#FF715B" stroke="#FF715B" stroke-width="0.125"/>
</svg>
