<svg width="32" height="19" viewBox="0 0 32 19" fill="none" xmlns="http://www.w3.org/2000/svg">
<path d="M20.8494 4C18.5803 4 16.5429 5.18074 16.5429 7.34745C16.5429 9.84282 20.1418 10.0132 20.1418 11.2548C20.1418 11.7783 19.5318 12.253 18.5071 12.253C17.0431 12.253 15.9451 11.5957 15.9451 11.5957L15.4815 13.7867C15.4815 13.7867 16.7381 14.3467 18.4217 14.3467C20.9104 14.3467 22.8624 13.1172 22.8624 10.9018C22.8624 8.27256 19.2512 8.10215 19.2512 6.94576C19.2512 6.53189 19.7514 6.08151 20.7762 6.08151C21.9352 6.08151 22.8868 6.55624 22.8868 6.55624L23.3504 4.43821C23.3382 4.43821 22.3012 4 20.8494 4ZM0.0609989 4.15824L0 4.47473C0 4.47473 0.951582 4.64515 1.81777 4.99815C2.92795 5.39984 3.00114 5.63112 3.19634 6.3493L5.2337 14.1763H7.96645L12.151 4.15824H9.43042L6.73427 10.9749L5.63629 5.19291C5.5387 4.53559 5.02631 4.15824 4.39192 4.15824H0.0609989ZM13.249 4.15824L11.114 14.1763H13.7125L15.8353 4.15824H13.249ZM27.7179 4.15824C27.0957 4.15824 26.7663 4.4869 26.5223 5.07118L22.716 14.1763H25.4365L25.9611 12.6547H29.2795L29.5966 14.1763H32L29.9138 4.15824H27.7179ZM28.0717 6.87272L28.8769 10.634H26.7175L28.0717 6.87272Z" fill="#1434CB"/>
</svg>
