<svg width="8" height="12" viewBox="0 0 8 12" fill="none" xmlns="http://www.w3.org/2000/svg">
<path d="M7.1007 6.37383L0.929052 11.8574C0.826076 11.9489 0.689263 12 0.546992 12C0.404721 12 0.26791 11.9489 0.164934 11.8574L0.158288 11.8512C0.108194 11.8068 0.068306 11.7534 0.041048 11.6942C0.0137901 11.635 -0.000266552 11.5712 -0.000266552 11.5068C-0.000266552 11.4424 0.0137901 11.3786 0.041048 11.3194C0.068306 11.2602 0.108194 11.2068 0.158288 11.1624L5.97002 5.99897L0.158288 0.837606C0.108194 0.793228 0.068306 0.739812 0.041048 0.680605C0.0137901 0.621398 -0.000266552 0.557638 -0.000266552 0.493206C-0.000266552 0.428773 0.0137901 0.365015 0.041048 0.305808C0.068306 0.246601 0.108194 0.193183 0.158288 0.148806L0.164934 0.14261C0.26791 0.0510674 0.404721 0 0.546992 0C0.689263 0 0.826076 0.0510674 0.929052 0.14261L7.1007 5.62617C7.15498 5.67439 7.19819 5.73239 7.22771 5.79665C7.25724 5.86091 7.27246 5.93009 7.27246 6C7.27246 6.06991 7.25724 6.13909 7.22771 6.20335C7.19819 6.26761 7.15498 6.32561 7.1007 6.37383Z" fill="white"/>
</svg>
