<svg width="36" height="30" viewBox="0 0 36 30" fill="none" xmlns="http://www.w3.org/2000/svg">
<path d="M1.99262 6.78171C0.918845 7.12098 1.00147 7.19469 1.00147 7.19469C1.16334 7.73634 1.32077 7.97704 1.74481 8.26844L2.40558 8.18584C2.68457 8.19625 2.78646 8.35658 2.98375 8.59882C3.07523 13.0706 3.15164 15.5811 2.81856 19.997C2.61063 20.9587 2.48008 21.1514 2.24039 21.3186L1.41443 21.649C1.09948 22.1867 1.11011 22.525 1.16664 23.1357C1.6333 23.1531 4.23817 23.2121 8.1047 23.3009C7.70032 24.8115 7.46243 25.1995 7.03095 25.6136C6.65319 25.8544 6.40014 25.9987 5.87461 26.2743L4.55307 26.9351C4.04341 27.3015 3.92495 27.8371 3.9749 28.3392C4.59304 28.9308 5.00125 28.9153 5.70942 29H13.0604C13.6817 28.9392 13.7614 28.8688 13.969 28.7522C14.2207 28.4947 14.309 28.3124 14.382 27.9263C14.3047 27.4485 14.2366 27.2987 14.1342 27.0177L13.969 26.8525C13.9956 26.8028 13.71 26.7369 13.0604 26.7699C12.1127 26.6495 11.6034 26.5692 11.2433 26.1091C10.825 25.6782 10.6786 25.4445 10.5 25.0354C10.465 24.3604 10.4722 24.1534 10.5 23.8791C10.5339 23.3031 10.6514 22.9267 10.913 22.2271L12.4823 18.8407C12.8792 17.8842 12.8859 17.6626 12.8953 17.2714C12.8815 16.8738 12.8353 16.5609 12.7301 15.9499C12.3195 15.253 12.0821 15.114 11.6563 14.9587C11.5478 14.9167 11.0634 16.0002 9.09585 20.823C8.28118 20.0213 8.27121 16.7464 8.43508 9.75516C10.9427 12.6927 13.4776 16.2479 18.1814 21.9794C18.8498 21.5576 19.1511 21.3223 19.5029 20.9056C19.9164 20.3306 19.9942 20.0566 20.0811 19.5841C20.1619 19.0325 20.137 18.7653 19.9985 18.3451C19.7745 17.5175 19.5448 17.1218 19.0899 16.4454H18.5944C17.9388 16.4233 17.1861 15.5544 15.4557 13.1416C15.0917 12.4467 15.2452 12.0109 15.4557 11.2419C15.8372 10.0343 16.0887 9.62769 16.5295 8.84661L22.559 23.4661C22.8601 24.4025 22.9914 24.8593 23.0546 25.3658C23.0794 25.9526 23.0752 26.1128 23.0546 26.2743C21.8623 26.4847 21.1683 26.615 19.7507 26.9351C19.6022 27.4834 19.7079 27.7909 19.7507 28.3392C20.0662 28.7683 20.2451 28.9602 20.5767 29H32.0575L32.2227 28.8348C32.3703 28.5867 32.4393 28.4276 32.4705 28.0089C32.4783 27.4967 32.4556 27.3156 32.3879 27.1003C32.2222 26.922 32.1114 26.833 31.8923 26.6873H30.736C30.232 26.5583 29.9408 26.2803 29.4144 25.6136C29.0802 24.8181 28.9128 24.3091 28.6711 23.2183H35.2787V22.4749C35.2268 21.9449 35.0988 21.8399 34.8758 21.6572L34.8658 21.649L34.205 21.4012C33.7564 21.1712 33.598 20.6271 33.4616 19.0059V8.51622C33.7041 8.29074 33.8498 8.22501 34.1224 8.18584C34.4724 8.18046 34.603 8.1813 34.7832 8.18584C35.0679 7.83163 35.2224 7.63018 35.3613 7.19469C34.9319 6.83133 34.4666 6.7171 33.379 6.61652L27.3495 6.69911C26.6432 6.84281 26.3021 6.95131 25.7802 7.19469C24.4657 8.72292 24.2728 8.95032 23.7979 9.50737C23.8558 11.0444 24.229 11.8119 25.0369 13.1416L27.9277 9.75516V20.1622C27.8987 20.5481 27.8067 20.5854 27.6799 20.7404C27.6249 20.7679 27.4982 20.823 27.4322 20.823C23.8905 11.5628 20.2075 2.1385 19.2552 1H17.6032C17.2831 1.07226 17.1204 1.19451 16.8599 1.57817L13.2257 10.4985C12.3054 9.21477 11.7664 8.49368 10.5826 7.19469C10.1546 6.91409 9.91167 6.75869 9.26106 6.61652C5.72463 6.47756 3.0664 6.44244 1.99262 6.78171Z" fill="#6A0DAD" stroke="#6A0DAD" stroke-width="0.2394" stroke-linejoin="round"/>
</svg>
