<svg width="23" height="24" viewBox="0 0 23 24" fill="none" xmlns="http://www.w3.org/2000/svg">
<path d="M19.625 2.00781H3.875C2.6375 2.00781 1.625 3.02031 1.625 4.25781V20.0078C1.625 21.2464 2.6375 22.2578 3.875 22.2578H11.75V14.3828H9.5V11.5984H11.75V9.29219C11.75 6.85769 13.1135 5.14769 15.9867 5.14769L18.0151 5.14994V8.08056H16.6685C15.5503 8.08056 15.125 8.91981 15.125 9.69831V11.5996H18.014L17.375 14.3828H15.125V22.2578H19.625C20.8625 22.2578 21.875 21.2464 21.875 20.0078V4.25781C21.875 3.02031 20.8625 2.00781 19.625 2.00781Z" fill="#F0F0F0"/>
</svg>
