<svg width="32" height="32" viewBox="0 0 32 32" fill="none" xmlns="http://www.w3.org/2000/svg">
<path d="M30.08 16.332C30.08 15.292 29.9867 14.292 29.8133 13.332H16V19.0054H23.8933C23.5533 20.8387 22.52 22.392 20.9667 23.432V27.112H25.7067C28.48 24.5587 30.08 20.7987 30.08 16.332Z" fill="#4285F4"/>
<path d="M16.0002 30.6652C19.9602 30.6652 23.2802 29.3518 25.7069 27.1118L20.9669 23.4318C19.6536 24.3118 17.9736 24.8318 16.0002 24.8318C12.1802 24.8318 8.94689 22.2518 7.79355 18.7852H2.89355V22.5852C5.30689 27.3785 10.2669 30.6652 16.0002 30.6652Z" fill="#34A853"/>
<path d="M7.79301 18.7874C7.49968 17.9074 7.33301 16.9674 7.33301 16.0007C7.33301 15.0341 7.49968 14.0941 7.79301 13.2141V9.41406H2.89301C1.86634 11.4579 1.3321 13.7135 1.33301 16.0007C1.33301 18.3674 1.89968 20.6074 2.89301 22.5874L7.79301 18.7874Z" fill="#FBBC05"/>
<path d="M16.0002 7.16536C18.1536 7.16536 20.0869 7.90536 21.6069 9.3587L25.8136 5.15203C23.2736 2.78536 19.9536 1.33203 16.0002 1.33203C10.2669 1.33203 5.30689 4.6187 2.89355 9.41203L7.79355 13.212C8.94689 9.74537 12.1802 7.16536 16.0002 7.16536Z" fill="#EA4335"/>
</svg>
