<svg width="18" height="19" viewBox="0 0 18 19" fill="none" xmlns="http://www.w3.org/2000/svg">
<g clip-path="url(#clip0_219_8024)">
<path d="M9 0.132812C6.55762 0.132812 6.2505 0.144063 5.29087 0.186813C4.33125 0.231812 3.67762 0.382562 3.105 0.605312C2.50407 0.830679 1.95991 1.18514 1.51088 1.64369C1.05232 2.09272 0.697866 2.63689 0.4725 3.23781C0.24975 3.80931 0.097875 4.46406 0.054 5.42031C0.01125 6.38219 0 6.68819 0 9.13394C0 11.5774 0.01125 11.8834 0.054 12.8431C0.099 13.8016 0.24975 14.4552 0.4725 15.0278C0.703125 15.6196 1.01025 16.1213 1.51088 16.6219C2.01038 17.1226 2.51213 17.4308 3.10388 17.6603C3.67763 17.8831 4.33013 18.0349 5.28863 18.0788C6.24938 18.1216 6.55538 18.1328 9 18.1328C11.4446 18.1328 11.7495 18.1216 12.7103 18.0788C13.6676 18.0338 14.3235 17.8831 14.8961 17.6603C15.4966 17.4348 16.0404 17.0804 16.4891 16.6219C16.9897 16.1213 17.2969 15.6196 17.5275 15.0278C17.7491 14.4552 17.901 13.8016 17.946 12.8431C17.9888 11.8834 18 11.5774 18 9.13281C18 6.68819 17.9888 6.38219 17.946 5.42144C17.901 4.46406 17.7491 3.80931 17.5275 3.23781C17.3021 2.63689 16.9477 2.09272 16.4891 1.64369C16.0401 1.18514 15.4959 0.830679 14.895 0.605312C14.3212 0.382562 13.6665 0.230687 12.7091 0.186813C11.7484 0.144063 11.4435 0.132812 8.99775 0.132812H9ZM8.19337 1.75506H9.00113C11.4041 1.75506 11.6887 1.76294 12.6371 1.80681C13.5146 1.84619 13.9916 1.99356 14.3089 2.11619C14.7285 2.27931 15.0289 2.47506 15.3439 2.79006C15.6589 3.10506 15.8535 3.40431 16.0166 3.82506C16.1404 4.14119 16.2866 4.61819 16.326 5.49569C16.3699 6.44406 16.3789 6.72869 16.3789 9.13056C16.3789 11.5324 16.3699 11.8182 16.326 12.7666C16.2866 13.6441 16.1392 14.1199 16.0166 14.4372C15.8713 14.8275 15.6411 15.1806 15.3427 15.4711C15.0277 15.7861 14.7285 15.9807 14.3078 16.1438C13.9928 16.2676 13.5157 16.4138 12.6371 16.4543C11.6887 16.4971 11.4041 16.5072 9.00113 16.5072C6.59813 16.5072 6.31238 16.4971 5.364 16.4543C4.4865 16.4138 4.01062 16.2676 3.69338 16.1438C3.30281 15.999 2.9493 15.7692 2.65837 15.4711C2.35943 15.1804 2.12887 14.8268 1.98338 14.4361C1.86075 14.1199 1.71338 13.6429 1.674 12.7654C1.63125 11.8171 1.62225 11.5324 1.62225 9.12831C1.62225 6.72419 1.63125 6.44181 1.674 5.49344C1.7145 4.61594 1.86075 4.13894 1.9845 3.82169C2.14762 3.40206 2.34337 3.10169 2.65837 2.78669C2.97337 2.47169 3.27262 2.27706 3.69338 2.11394C4.01062 1.99019 4.4865 1.84394 5.364 1.80344C6.19425 1.76519 6.516 1.75394 8.19337 1.75281V1.75506ZM13.8049 3.24906C13.663 3.24906 13.5226 3.277 13.3916 3.33127C13.2605 3.38555 13.1415 3.4651 13.0412 3.56539C12.9409 3.66567 12.8614 3.78473 12.8071 3.91576C12.7528 4.0468 12.7249 4.18723 12.7249 4.32906C12.7249 4.47089 12.7528 4.61133 12.8071 4.74236C12.8614 4.87339 12.9409 4.99245 13.0412 5.09274C13.1415 5.19303 13.2605 5.27258 13.3916 5.32685C13.5226 5.38113 13.663 5.40906 13.8049 5.40906C14.0913 5.40906 14.366 5.29528 14.5686 5.09274C14.7711 4.8902 14.8849 4.6155 14.8849 4.32906C14.8849 4.04263 14.7711 3.76793 14.5686 3.56539C14.366 3.36285 14.0913 3.24906 13.8049 3.24906ZM9.00113 4.51131C8.38808 4.50175 7.77926 4.61423 7.2101 4.84222C6.64094 5.07021 6.12283 5.40914 5.68592 5.83929C5.24901 6.26944 4.90203 6.7822 4.6652 7.34773C4.42836 7.91326 4.30639 8.52025 4.30639 9.13338C4.30639 9.7465 4.42836 10.3535 4.6652 10.919C4.90203 11.4845 5.24901 11.9973 5.68592 12.4275C6.12283 12.8576 6.64094 13.1965 7.2101 13.4245C7.77926 13.6525 8.38808 13.765 9.00113 13.7554C10.2145 13.7365 11.3717 13.2412 12.2231 12.3765C13.0745 11.5117 13.5516 10.3469 13.5516 9.13338C13.5516 7.91987 13.0745 6.75503 12.2231 5.89028C11.3717 5.02554 10.2145 4.53024 9.00113 4.51131ZM9.00113 6.13244C9.39514 6.13244 9.7853 6.21004 10.1493 6.36083C10.5133 6.51161 10.8441 6.73262 11.1227 7.01123C11.4013 7.28984 11.6223 7.6206 11.7731 7.98462C11.9239 8.34864 12.0015 8.7388 12.0015 9.13281C12.0015 9.52683 11.9239 9.91698 11.7731 10.281C11.6223 10.645 11.4013 10.9758 11.1227 11.2544C10.8441 11.533 10.5133 11.754 10.1493 11.9048C9.7853 12.0556 9.39514 12.1332 9.00113 12.1332C8.20538 12.1332 7.44222 11.8171 6.87954 11.2544C6.31686 10.6917 6.00075 9.92856 6.00075 9.13281C6.00075 8.33706 6.31686 7.57391 6.87954 7.01123C7.44222 6.44855 8.20538 6.13244 9.00113 6.13244Z" fill="#F0F0F0"/>
</g>
<defs>
<clipPath id="clip0_219_8024">
<rect width="18" height="18" fill="white" transform="translate(0 0.132812)"/>
</clipPath>
</defs>
</svg>
