<svg width="27" height="28" viewBox="0 0 27 28" fill="none" xmlns="http://www.w3.org/2000/svg">
<path d="M21.375 4.00781C21.9717 4.00781 22.544 4.24487 22.966 4.66682C23.3879 5.08878 23.625 5.66108 23.625 6.25781V22.0078C23.625 22.6045 23.3879 23.1768 22.966 23.5988C22.544 24.0208 21.9717 24.2578 21.375 24.2578H5.625C5.02826 24.2578 4.45597 24.0208 4.03401 23.5988C3.61205 23.1768 3.375 22.6045 3.375 22.0078V6.25781C3.375 5.66108 3.61205 5.08878 4.03401 4.66682C4.45597 4.24487 5.02826 4.00781 5.625 4.00781H21.375ZM20.8125 21.4453V15.4828C20.8125 14.5101 20.4261 13.5773 19.7383 12.8895C19.0505 12.2017 18.1177 11.8153 17.145 11.8153C16.1887 11.8153 15.075 12.4003 14.535 13.2778V12.0291H11.3962V21.4453H14.535V15.8991C14.535 15.0328 15.2325 14.3241 16.0988 14.3241C16.5165 14.3241 16.9171 14.49 17.2124 14.7854C17.5078 15.0807 17.6737 15.4813 17.6737 15.8991V21.4453H20.8125ZM7.74 10.2628C8.24126 10.2628 8.72199 10.0637 9.07643 9.70924C9.43088 9.3548 9.63 8.87407 9.63 8.37281C9.63 7.32656 8.78625 6.47156 7.74 6.47156C7.23576 6.47156 6.75217 6.67187 6.39561 7.02843C6.03906 7.38498 5.83875 7.86857 5.83875 8.37281C5.83875 9.41906 6.69375 10.2628 7.74 10.2628ZM9.30375 21.4453V12.0291H6.1875V21.4453H9.30375Z" fill="#F0F0F0"/>
</svg>
