<svg width="28" height="48" viewBox="0 0 28 48" fill="none" xmlns="http://www.w3.org/2000/svg">
<g clip-path="url(#clip0_1_4811)">
<path d="M14 29.1429C15.1602 29.1429 16.2852 29.0089 17.375 28.7411V46.2857C17.375 46.75 17.208 47.1518 16.874 47.4911C16.54 47.8304 16.1445 48 15.6875 48H12.3125C11.8555 48 11.46 47.8304 11.126 47.4911C10.792 47.1518 10.625 46.75 10.625 46.2857V28.7411C11.7148 29.0089 12.8398 29.1429 14 29.1429ZM14 0C17.7266 0 20.9082 1.33929 23.5449 4.01786C26.1816 6.69643 27.5 9.92857 27.5 13.7143C27.5 17.5 26.1816 20.7321 23.5449 23.4107C20.9082 26.0893 17.7266 27.4286 14 27.4286C10.2734 27.4286 7.0918 26.0893 4.45508 23.4107C1.81836 20.7321 0.5 17.5 0.5 13.7143C0.5 9.92857 1.81836 6.69643 4.45508 4.01786C7.0918 1.33929 10.2734 0 14 0ZM14 6C14.2461 6 14.4482 5.91964 14.6064 5.75893C14.7646 5.59821 14.8438 5.39286 14.8438 5.14286C14.8438 4.89286 14.7646 4.6875 14.6064 4.52679C14.4482 4.36607 14.2461 4.28571 14 4.28571C11.4336 4.28571 9.24512 5.20536 7.43457 7.04464C5.62402 8.88393 4.71875 11.1071 4.71875 13.7143C4.71875 13.9643 4.79785 14.1696 4.95605 14.3304C5.11426 14.4911 5.31641 14.5714 5.5625 14.5714C5.80859 14.5714 6.01074 14.4911 6.16895 14.3304C6.32715 14.1696 6.40625 13.9643 6.40625 13.7143C6.40625 11.5893 7.14893 9.77232 8.63428 8.26339C10.1196 6.75446 11.9082 6 14 6Z" fill="#6A0DAD"/>
</g>
<defs>
<clipPath id="clip0_1_4811">
<rect width="27" height="48" fill="white" transform="translate(0.5)"/>
</clipPath>
</defs>
</svg>
