<svg width="27" height="27" viewBox="0 0 27 27" fill="none" xmlns="http://www.w3.org/2000/svg">
<path d="M25.9695 5.89883C25.8815 5.79352 25.7715 5.70882 25.6471 5.6507C25.5228 5.59259 25.3872 5.56248 25.25 5.5625H6.34531L5.63281 1.64492C5.59357 1.42891 5.47975 1.23352 5.31121 1.09282C5.14267 0.952117 4.9301 0.875032 4.71055 0.875H1.8125C1.56386 0.875 1.3254 0.973772 1.14959 1.14959C0.973772 1.3254 0.875 1.56386 0.875 1.8125C0.875 2.06114 0.973772 2.2996 1.14959 2.47541C1.3254 2.65123 1.56386 2.75 1.8125 2.75H3.92188L6.91719 19.1902C7.00542 19.6778 7.22089 20.1334 7.5418 20.5109C7.09888 20.9246 6.7792 21.4529 6.61819 22.0372C6.45719 22.6215 6.46115 23.2389 6.62964 23.8211C6.79814 24.4033 7.12458 24.9274 7.57276 25.3354C8.02095 25.7434 8.57338 26.0192 9.16878 26.1324C9.76418 26.2456 10.3793 26.1917 10.9459 25.9766C11.5125 25.7615 12.0085 25.3937 12.3789 24.914C12.7492 24.4342 12.9795 23.8613 13.0441 23.2587C13.1087 22.6561 13.0052 22.0474 12.7449 21.5H18.0676C17.8578 21.9391 17.7493 22.4196 17.75 22.9062C17.75 23.5552 17.9424 24.1896 18.303 24.7292C18.6635 25.2688 19.176 25.6894 19.7756 25.9377C20.3751 26.1861 21.0349 26.2511 21.6714 26.1245C22.3079 25.9978 22.8926 25.6853 23.3514 25.2264C23.8103 24.7676 24.1228 24.1829 24.2495 23.5464C24.3761 22.9099 24.3111 22.2501 24.0627 21.6506C23.8144 21.051 23.3938 20.5385 22.8542 20.178C22.3146 19.8174 21.6802 19.625 21.0312 19.625H9.68398C9.46443 19.625 9.25186 19.5479 9.08332 19.4072C8.91478 19.2665 8.80096 19.0711 8.76172 18.8551L8.39023 16.8125H21.984C22.6426 16.8124 23.2804 16.5811 23.786 16.159C24.2916 15.7369 24.633 15.1508 24.7508 14.5027L26.1758 6.66758C26.1999 6.53216 26.1939 6.39308 26.1583 6.26023C26.1226 6.12737 26.0582 6.00399 25.9695 5.89883ZM11.1875 22.9062C11.1875 23.1844 11.105 23.4563 10.9505 23.6875C10.796 23.9188 10.5764 24.099 10.3194 24.2055C10.0624 24.3119 9.77969 24.3397 9.5069 24.2855C9.23412 24.2312 8.98355 24.0973 8.78688 23.9006C8.59021 23.7039 8.45628 23.4534 8.40202 23.1806C8.34776 22.9078 8.37561 22.6251 8.48204 22.3681C8.58848 22.1111 8.76872 21.8915 8.99998 21.737C9.23124 21.5825 9.50312 21.5 9.78125 21.5C10.1542 21.5 10.5119 21.6482 10.7756 21.9119C11.0393 22.1756 11.1875 22.5333 11.1875 22.9062ZM22.4375 22.9062C22.4375 23.1844 22.355 23.4563 22.2005 23.6875C22.046 23.9188 21.8264 24.099 21.5694 24.2055C21.3124 24.3119 21.0297 24.3397 20.7569 24.2855C20.4841 24.2312 20.2335 24.0973 20.0369 23.9006C19.8402 23.7039 19.7063 23.4534 19.652 23.1806C19.5978 22.9078 19.6256 22.6251 19.732 22.3681C19.8385 22.1111 20.0187 21.8915 20.25 21.737C20.4812 21.5825 20.7531 21.5 21.0312 21.5C21.4042 21.5 21.7619 21.6482 22.0256 21.9119C22.2893 22.1756 22.4375 22.5333 22.4375 22.9062ZM22.9062 14.1676C22.8669 14.3842 22.7526 14.58 22.5833 14.7208C22.414 14.8616 22.2006 14.9383 21.9805 14.9375H8.04922L6.68633 7.4375H24.1262L22.9062 14.1676Z" fill="white"/>
</svg>
