<svg width="20" height="20" viewBox="0 0 20 20" fill="none" xmlns="http://www.w3.org/2000/svg">
<path d="M17.9424 17.0595L14.0306 13.1485C15.1644 11.7874 15.7298 10.0415 15.6091 8.27409C15.4884 6.5067 14.691 4.85387 13.3828 3.65943C12.0745 2.46499 10.3561 1.8209 8.5851 1.86115C6.81406 1.9014 5.12671 2.62289 3.87407 3.87554C2.62143 5.12818 1.89994 6.81553 1.85969 8.58657C1.81944 10.3576 2.46353 12.076 3.65797 13.3843C4.85241 14.6925 6.50524 15.4899 8.27263 15.6106C10.04 15.7312 11.7859 15.1659 13.1471 14.0321L17.058 17.9438C17.1161 18.0019 17.185 18.048 17.2609 18.0794C17.3367 18.1108 17.4181 18.127 17.5002 18.127C17.5823 18.127 17.6636 18.1108 17.7395 18.0794C17.8154 18.048 17.8843 18.0019 17.9424 17.9438C18.0004 17.8858 18.0465 17.8168 18.0779 17.741C18.1094 17.6651 18.1255 17.5838 18.1255 17.5016C18.1255 17.4195 18.1094 17.3382 18.0779 17.2623C18.0465 17.1865 18.0004 17.1175 17.9424 17.0595ZM3.12518 8.75164C3.12518 7.63912 3.45508 6.55159 4.07316 5.62656C4.69124 4.70153 5.56975 3.98056 6.59758 3.55482C7.62542 3.12908 8.75642 3.01768 9.84756 3.23473C10.9387 3.45177 11.941 3.9875 12.7277 4.77417C13.5143 5.56084 14.0501 6.56312 14.2671 7.65426C14.4841 8.7454 14.3727 9.8764 13.947 10.9042C13.5213 11.9321 12.8003 12.8106 11.8753 13.4287C10.9502 14.0467 9.8627 14.3766 8.75018 14.3766C7.25884 14.375 5.82906 13.7818 4.77453 12.7273C3.72 11.6728 3.12683 10.243 3.12518 8.75164Z" fill="black"/>
</svg>
