<svg width="20" height="18" viewBox="0 0 20 18" fill="none" xmlns="http://www.w3.org/2000/svg">
<path d="M13.774 9.98664C13.774 10.1868 13.6945 10.3788 13.5529 10.5204C13.4113 10.6619 13.2193 10.7415 13.0191 10.7415H10.7547V13.006C10.7547 13.2062 10.6751 13.3982 10.5336 13.5397C10.392 13.6813 10.2 13.7608 9.99982 13.7608C9.79963 13.7608 9.60763 13.6813 9.46608 13.5397C9.32452 13.3982 9.24499 13.2062 9.24499 13.006V10.7415H6.9805C6.7803 10.7415 6.58831 10.6619 6.44675 10.5204C6.30519 10.3788 6.22566 10.1868 6.22566 9.98664C6.22566 9.78645 6.30519 9.59445 6.44675 9.45289C6.58831 9.31133 6.7803 9.23181 6.9805 9.23181H9.24499V6.96731C9.24499 6.76712 9.32452 6.57513 9.46608 6.43357C9.60763 6.29201 9.79963 6.21248 9.99982 6.21248C10.2 6.21248 10.392 6.29201 10.5336 6.43357C10.6751 6.57513 10.7547 6.76712 10.7547 6.96731V9.23181H13.0191C13.2193 9.23181 13.4113 9.31133 13.5529 9.45289C13.6945 9.59445 13.774 9.78645 13.774 9.98664ZM19.8126 4.70282V15.2705C19.8126 15.871 19.5741 16.447 19.1494 16.8717C18.7247 17.2964 18.1487 17.535 17.5481 17.535H2.45151C1.85093 17.535 1.27494 17.2964 0.850267 16.8717C0.425592 16.447 0.187012 15.871 0.187012 15.2705V4.70282C0.187012 4.10224 0.425592 3.52625 0.850267 3.10158C1.27494 2.6769 1.85093 2.43832 2.45151 2.43832H5.067L6.13131 0.845628C6.26893 0.639355 6.45525 0.470158 6.67379 0.352989C6.89233 0.23582 7.13636 0.174287 7.38433 0.173828H12.6153C12.8633 0.174287 13.1073 0.23582 13.3259 0.352989C13.5444 0.470158 13.7307 0.639355 13.8683 0.845628L14.9326 2.43832H17.5481C18.1487 2.43832 18.7247 2.6769 19.1494 3.10158C19.5741 3.52625 19.8126 4.10224 19.8126 4.70282ZM18.303 4.70282C18.303 4.50262 18.2234 4.31063 18.0819 4.16907C17.9403 4.02751 17.7483 3.94799 17.5481 3.94799H14.5288C14.4045 3.94807 14.2821 3.91745 14.1725 3.85885C14.0629 3.80025 13.9694 3.71549 13.9004 3.61209L12.6153 1.68349H7.38433L6.09923 3.61209C6.03024 3.71549 5.93679 3.80025 5.82716 3.85885C5.71754 3.91745 5.59514 3.94807 5.47083 3.94799H2.45151C2.25131 3.94799 2.05932 4.02751 1.91776 4.16907C1.7762 4.31063 1.69667 4.50262 1.69667 4.70282V15.2705C1.69667 15.4707 1.7762 15.6627 1.91776 15.8042C2.05932 15.9458 2.25131 16.0253 2.45151 16.0253H17.5481C17.7483 16.0253 17.9403 15.9458 18.0819 15.8042C18.2234 15.6627 18.303 15.4707 18.303 15.2705V4.70282Z" fill="#FF715B"/>
</svg>
