<svg width="25" height="25" viewBox="0 0 25 25" fill="none" xmlns="http://www.w3.org/2000/svg">
<path d="M20.1258 5.28403H17.5103L16.2242 3.35543C16.1553 3.25216 16.062 3.16748 15.9526 3.10889C15.8431 3.0503 15.7209 3.01961 15.5968 3.01953H9.55813C9.43399 3.01961 9.31178 3.0503 9.20233 3.10889C9.09289 3.16748 8.99958 3.25216 8.93068 3.35543L7.64369 5.28403H5.02914C4.42856 5.28403 3.85258 5.52261 3.4279 5.94728C3.00323 6.37196 2.76465 6.94794 2.76465 7.54852V18.1162C2.76465 18.7167 3.00323 19.2927 3.4279 19.7174C3.85258 20.1421 4.42856 20.3807 5.02914 20.3807H20.1258C20.7264 20.3807 21.3023 20.1421 21.727 19.7174C22.1517 19.2927 22.3903 18.7167 22.3903 18.1162V7.54852C22.3903 6.94794 22.1517 6.37196 21.727 5.94728C21.3023 5.52261 20.7264 5.28403 20.1258 5.28403ZM20.8806 18.1162C20.8806 18.3164 20.8011 18.5084 20.6595 18.6499C20.518 18.7915 20.326 18.871 20.1258 18.871H5.02914C4.82895 18.871 4.63696 18.7915 4.4954 18.6499C4.35384 18.5084 4.27431 18.3164 4.27431 18.1162V7.54852C4.27431 7.34833 4.35384 7.15633 4.4954 7.01478C4.63696 6.87322 4.82895 6.79369 5.02914 6.79369H8.04847C8.17277 6.79377 8.29517 6.76315 8.4048 6.70455C8.51442 6.64596 8.60788 6.56119 8.67687 6.45779L9.96197 4.52919H15.192L16.4781 6.45779C16.547 6.56119 16.6405 6.64596 16.7501 6.70455C16.8597 6.76315 16.9821 6.79377 17.1064 6.79369H20.1258C20.326 6.79369 20.518 6.87322 20.6595 7.01478C20.8011 7.15633 20.8806 7.34833 20.8806 7.54852V18.1162ZM12.5775 8.30335C11.7564 8.30335 10.9537 8.54684 10.271 9.00302C9.58825 9.4592 9.05613 10.1076 8.74191 10.8662C8.42768 11.6248 8.34547 12.4595 8.50566 13.2649C8.66585 14.0702 9.06124 14.8099 9.64185 15.3905C10.2225 15.9711 10.9622 16.3665 11.7675 16.5267C12.5729 16.6869 13.4076 16.6047 14.1662 16.2905C14.9248 15.9763 15.5732 15.4441 16.0294 14.7614C16.4855 14.0787 16.729 13.276 16.729 12.4549C16.7278 11.3542 16.29 10.299 15.5117 9.5207C14.7334 8.7424 13.6781 8.3046 12.5775 8.30335ZM12.5775 15.0968C12.0549 15.0968 11.5442 14.9419 11.1097 14.6516C10.6752 14.3613 10.3366 13.9487 10.1367 13.4659C9.93669 12.9832 9.88437 12.452 9.98631 11.9395C10.0883 11.427 10.3399 10.9563 10.7093 10.5868C11.0788 10.2173 11.5496 9.96572 12.062 9.86378C12.5745 9.76184 13.1057 9.81416 13.5885 10.0141C14.0712 10.2141 14.4838 10.5527 14.7741 10.9872C15.0644 11.4216 15.2194 11.9324 15.2194 12.4549C15.2194 13.1556 14.941 13.8276 14.4456 14.323C13.9501 14.8185 13.2781 15.0968 12.5775 15.0968Z" fill="#FF715B"/>
</svg>
