<svg width="26" height="26" viewBox="0 0 26 26" fill="none" xmlns="http://www.w3.org/2000/svg">
<path d="M17.7499 16.5518L16.0195 14.8204V20.5468C16.0195 20.747 15.9399 20.939 15.7984 21.0805C15.6568 21.2221 15.4648 21.3016 15.2646 21.3016C15.0644 21.3016 14.8724 21.2221 14.7309 21.0805C14.5893 20.939 14.5098 20.747 14.5098 20.5468V14.8204L12.7793 16.5518C12.7092 16.622 12.626 16.6776 12.5343 16.7155C12.4427 16.7535 12.3445 16.773 12.2453 16.773C12.1461 16.773 12.0479 16.7535 11.9563 16.7155C11.8646 16.6776 11.7814 16.622 11.7113 16.5518C11.6411 16.4817 11.5855 16.3984 11.5475 16.3068C11.5096 16.2152 11.49 16.117 11.49 16.0178C11.49 15.9186 11.5096 15.8204 11.5475 15.7288C11.5855 15.6371 11.6411 15.5539 11.7113 15.4837L14.7306 12.4644C14.8007 12.3942 14.8839 12.3386 14.9756 12.3006C15.0672 12.2626 15.1654 12.243 15.2646 12.243C15.3638 12.243 15.462 12.2626 15.5537 12.3006C15.6453 12.3386 15.7286 12.3942 15.7987 12.4644L18.818 15.4837C18.8881 15.5539 18.9438 15.6371 18.9817 15.7288C19.0197 15.8204 19.0392 15.9186 19.0392 16.0178C19.0392 16.117 19.0197 16.2152 18.9817 16.3068C18.9438 16.3984 18.8881 16.4817 18.818 16.5518C18.7479 16.622 18.6646 16.6776 18.573 16.7155C18.4813 16.7535 18.3831 16.773 18.284 16.773C18.1848 16.773 18.0866 16.7535 17.9949 16.7155C17.9033 16.6776 17.82 16.622 17.7499 16.5518ZM16.0195 4.69531C14.4773 4.69648 12.9659 5.12671 11.6543 5.93789C10.3427 6.74907 9.2827 7.90919 8.59286 9.28846C7.77153 9.16777 6.93414 9.21772 6.13298 9.4352C5.33182 9.65267 4.58411 10.033 3.93654 10.5524C3.28897 11.0718 2.75545 11.7192 2.36931 12.4541C1.98317 13.189 1.75269 13.9956 1.69228 14.8235C1.63187 15.6515 1.74282 16.483 2.0182 17.2661C2.29358 18.0493 2.72747 18.7672 3.29278 19.3751C3.85809 19.9831 4.54268 20.4679 5.30378 20.7994C6.06489 21.1308 6.88616 21.3018 7.71631 21.3016H11.4905C11.6907 21.3016 11.8827 21.2221 12.0242 21.0805C12.1658 20.939 12.2453 20.747 12.2453 20.5468C12.2453 20.3466 12.1658 20.1546 12.0242 20.013C11.8827 19.8715 11.6907 19.7919 11.4905 19.7919H7.71631C6.51515 19.7919 5.36318 19.3148 4.51383 18.4654C3.66448 17.6161 3.18732 16.4641 3.18732 15.263C3.18732 14.0618 3.66448 12.9098 4.51383 12.0605C5.36318 11.2111 6.51515 10.734 7.71631 10.734C7.8201 10.734 7.92389 10.734 8.02673 10.7453C7.8204 11.4786 7.71594 12.2367 7.71631 12.9985C7.71631 13.1987 7.79584 13.3907 7.9374 13.5322C8.07895 13.6738 8.27095 13.7533 8.47114 13.7533C8.67134 13.7533 8.86333 13.6738 9.00489 13.5322C9.14645 13.3907 9.22597 13.1987 9.22597 12.9985C9.22616 11.7737 9.55744 10.5718 10.1848 9.51988C10.8121 8.46798 11.7121 7.60523 12.7896 7.02294C13.867 6.44064 15.0819 6.16045 16.3056 6.21203C17.5292 6.26361 18.7162 6.64503 19.7408 7.31594C20.7655 7.98684 21.5897 8.92226 22.1263 10.0232C22.6629 11.1242 22.8918 12.3497 22.7889 13.5701C22.6861 14.7906 22.2552 15.9605 21.5419 16.9561C20.8285 17.9517 19.8594 18.7359 18.7369 19.2258C18.5775 19.2949 18.4468 19.4169 18.3669 19.5711C18.2869 19.7254 18.2627 19.9025 18.2981 20.0725C18.3336 20.2426 18.4267 20.3952 18.5616 20.5046C18.6965 20.6141 18.8651 20.6736 19.0388 20.6732C19.1428 20.6731 19.2457 20.6513 19.3407 20.6091C21.0894 19.8463 22.5221 18.5045 23.3978 16.8095C24.2734 15.1145 24.5387 13.1697 24.1489 11.3021C23.7591 9.43453 22.7381 7.75814 21.2576 6.5549C19.777 5.35166 17.9273 4.69498 16.0195 4.69531Z" fill="white"/>
</svg>
