<svg width="31" height="18" viewBox="0 0 31 18" fill="none" xmlns="http://www.w3.org/2000/svg">
<path d="M15.5 4C14.5111 4 13.5444 4.29325 12.7221 4.84265C11.8999 5.39206 11.259 6.17295 10.8806 7.08658C10.5022 8.00021 10.4031 9.00555 10.5961 9.97545C10.789 10.9454 11.2652 11.8363 11.9645 12.5355C12.6637 13.2348 13.5546 13.711 14.5245 13.9039C15.4945 14.0969 16.4998 13.9978 17.4134 13.6194C18.327 13.241 19.1079 12.6001 19.6573 11.7779C20.2068 10.9556 20.5 9.98891 20.5 9C20.5 7.67392 19.9732 6.40215 19.0355 5.46447C18.0979 4.52678 16.8261 4 15.5 4ZM15.5 12C14.9067 12 14.3266 11.8241 13.8333 11.4944C13.3399 11.1648 12.9554 10.6962 12.7284 10.1481C12.5013 9.59987 12.4419 8.99667 12.5576 8.41473C12.6734 7.83279 12.9591 7.29824 13.3787 6.87868C13.7982 6.45912 14.3328 6.1734 14.9147 6.05764C15.4967 5.94189 16.0999 6.0013 16.6481 6.22836C17.1962 6.45542 17.6648 6.83994 17.9944 7.33329C18.3241 7.82664 18.5 8.40666 18.5 9C18.5 9.79565 18.1839 10.5587 17.6213 11.1213C17.0587 11.6839 16.2956 12 15.5 12ZM29.5 0H1.5C1.23478 0 0.98043 0.105357 0.792893 0.292893C0.605357 0.48043 0.5 0.734784 0.5 1V17C0.5 17.2652 0.605357 17.5196 0.792893 17.7071C0.98043 17.8946 1.23478 18 1.5 18H29.5C29.7652 18 30.0196 17.8946 30.2071 17.7071C30.3946 17.5196 30.5 17.2652 30.5 17V1C30.5 0.734784 30.3946 0.48043 30.2071 0.292893C30.0196 0.105357 29.7652 0 29.5 0ZM23.7062 16H7.29375C6.95801 14.8645 6.34351 13.8311 5.50623 12.9938C4.66895 12.1565 3.6355 11.542 2.5 11.2062V6.79375C3.6355 6.45801 4.66895 5.84351 5.50623 5.00623C6.34351 4.16895 6.95801 3.1355 7.29375 2H23.7062C24.042 3.1355 24.6565 4.16895 25.4938 5.00623C26.3311 5.84351 27.3645 6.45801 28.5 6.79375V11.2062C27.3645 11.542 26.3311 12.1565 25.4938 12.9938C24.6565 13.8311 24.042 14.8645 23.7062 16ZM28.5 4.67125C27.3005 4.15549 26.3445 3.19945 25.8288 2H28.5V4.67125ZM5.17125 2C4.65549 3.19945 3.69945 4.15549 2.5 4.67125V2H5.17125ZM2.5 13.3288C3.69945 13.8445 4.65549 14.8005 5.17125 16H2.5V13.3288ZM25.8288 16C26.3445 14.8005 27.3005 13.8445 28.5 13.3288V16H25.8288Z" fill="black"/>
</svg>
