<svg width="17" height="14" viewBox="0 0 17 14" fill="none" xmlns="http://www.w3.org/2000/svg">
<path d="M16 0.75H1C0.83424 0.75 0.675268 0.815848 0.558058 0.933058C0.440848 1.05027 0.375 1.20924 0.375 1.375V12C0.375 12.3315 0.506696 12.6495 0.741116 12.8839C0.975537 13.1183 1.29348 13.25 1.625 13.25H15.375C15.7065 13.25 16.0245 13.1183 16.2589 12.8839C16.4933 12.6495 16.625 12.3315 16.625 12V1.375C16.625 1.20924 16.5592 1.05027 16.4419 0.933058C16.3247 0.815848 16.1658 0.75 16 0.75ZM14.393 2L8.5 7.40234L2.60703 2H14.393ZM15.375 12H1.625V2.79609L8.07734 8.71094C8.19265 8.81679 8.34348 8.87552 8.5 8.87552C8.65652 8.87552 8.80735 8.81679 8.92266 8.71094L15.375 2.79609V12Z" fill="black"/>
<path d="M16 0.75H1C0.83424 0.75 0.675268 0.815848 0.558058 0.933058C0.440848 1.05027 0.375 1.20924 0.375 1.375V12C0.375 12.3315 0.506696 12.6495 0.741116 12.8839C0.975537 13.1183 1.29348 13.25 1.625 13.25H15.375C15.7065 13.25 16.0245 13.1183 16.2589 12.8839C16.4933 12.6495 16.625 12.3315 16.625 12V1.375C16.625 1.20924 16.5592 1.05027 16.4419 0.933058C16.3247 0.815848 16.1658 0.75 16 0.75ZM14.393 2L8.5 7.40234L2.60703 2H14.393ZM15.375 12H1.625V2.79609L8.07734 8.71094C8.19265 8.81679 8.34348 8.87552 8.5 8.87552C8.65652 8.87552 8.80735 8.81679 8.92266 8.71094L15.375 2.79609V12Z" fill="white" fill-opacity="0.32"/>
</svg>
