<svg width="21" height="20" viewBox="0 0 21 20" fill="none" xmlns="http://www.w3.org/2000/svg">
<path d="M4.71249 2.70633C4.65761 2.64446 4.59099 2.5941 4.51649 2.55816C4.442 2.52223 4.36111 2.50144 4.27853 2.497C4.19594 2.49255 4.11329 2.50455 4.03537 2.53228C3.95746 2.56001 3.88582 2.60294 3.82461 2.65856C3.7634 2.71418 3.71384 2.7814 3.67881 2.85632C3.64377 2.93124 3.62395 3.01237 3.6205 3.095C3.61704 3.17764 3.63003 3.26014 3.65869 3.33772C3.68736 3.4153 3.73114 3.48642 3.78749 3.54695L5.29062 5.20086C2.45312 6.94226 1.23281 9.62664 1.1789 9.74851C1.14336 9.82845 1.125 9.91495 1.125 10.0024C1.125 10.0899 1.14336 10.1764 1.1789 10.2563C1.20624 10.318 1.86796 11.7852 3.33905 13.2563C5.29921 15.2157 7.77499 16.2516 10.5 16.2516C11.9005 16.2596 13.2868 15.9713 14.568 15.4055L16.2867 17.297C16.3416 17.3588 16.4082 17.4092 16.4827 17.4451C16.5572 17.481 16.6381 17.5018 16.7207 17.5063C16.8033 17.5107 16.8859 17.4987 16.9638 17.471C17.0417 17.4433 17.1134 17.4003 17.1746 17.3447C17.2358 17.2891 17.2854 17.2219 17.3204 17.147C17.3554 17.072 17.3753 16.9909 17.3787 16.9083C17.3822 16.8256 17.3692 16.7431 17.3405 16.6656C17.3118 16.588 17.2681 16.5169 17.2117 16.4563L4.71249 2.70633ZM8.41015 8.63133L11.6656 12.2134C11.1754 12.4713 10.6134 12.559 10.0678 12.4629C9.52229 12.3668 9.02413 12.0922 8.65157 11.6823C8.27901 11.2723 8.05314 10.7503 8.00945 10.1981C7.96575 9.64584 8.1067 9.09476 8.41015 8.63133ZM10.5 15.0016C8.0953 15.0016 5.99452 14.1274 4.25546 12.404C3.54164 11.6946 2.93454 10.8854 2.45312 10.0016C2.81952 9.31492 3.98905 7.39305 6.15234 6.14383L7.55859 7.6868C7.01416 8.38406 6.73377 9.25135 6.76697 10.1354C6.80017 11.0194 7.14483 11.8632 7.74002 12.5177C8.33521 13.1721 9.14261 13.5951 10.0195 13.7118C10.8964 13.8286 11.7864 13.6315 12.532 13.1555L13.6828 14.4212C12.6672 14.8108 11.5878 15.0077 10.5 15.0016ZM10.9687 7.54617C10.8059 7.51509 10.662 7.42059 10.5689 7.28345C10.4757 7.14632 10.4408 6.97778 10.4719 6.81492C10.5029 6.65206 10.5975 6.50822 10.7346 6.41504C10.8717 6.32185 11.0403 6.28697 11.2031 6.31805C11.9997 6.47247 12.725 6.88027 13.2708 7.48061C13.8167 8.08096 14.1539 8.84167 14.232 9.6493C14.2475 9.81433 14.1967 9.97874 14.0909 10.1063C13.9851 10.234 13.833 10.3143 13.668 10.3298C13.6484 10.3309 13.6289 10.3309 13.6094 10.3298C13.4532 10.3304 13.3024 10.2726 13.1867 10.1676C13.071 10.0626 12.9988 9.91812 12.9844 9.76258C12.9318 9.22539 12.7072 8.71952 12.344 8.32019C11.9809 7.92086 11.4985 7.6494 10.9687 7.54617ZM19.8187 10.2563C19.7859 10.3298 18.9945 12.0821 17.2125 13.6782C17.1516 13.7345 17.0801 13.7781 17.0022 13.8065C16.9243 13.8348 16.8415 13.8474 16.7587 13.8435C16.6759 13.8396 16.5947 13.8192 16.5198 13.7836C16.4449 13.748 16.3779 13.6978 16.3226 13.6361C16.2673 13.5743 16.2249 13.5021 16.1977 13.4238C16.1706 13.3454 16.1593 13.2625 16.1645 13.1797C16.1698 13.097 16.1914 13.0161 16.2282 12.9418C16.265 12.8675 16.3162 12.8013 16.3789 12.747C17.2532 11.9615 17.9876 11.0332 18.5508 10.0016C18.0683 9.11709 17.4599 8.30733 16.7445 7.59773C15.0055 5.87586 12.9047 5.00164 10.5 5.00164C9.99332 5.00102 9.48745 5.04204 8.98749 5.1243C8.90619 5.13867 8.82284 5.1368 8.74227 5.11878C8.6617 5.10077 8.58549 5.06697 8.51805 5.01933C8.45062 4.97169 8.39329 4.91117 8.34938 4.84125C8.30547 4.77133 8.27584 4.69341 8.26222 4.61197C8.2486 4.53054 8.25124 4.44722 8.27 4.36682C8.28877 4.28641 8.32327 4.21052 8.37153 4.14353C8.41979 4.07654 8.48085 4.01977 8.55117 3.97651C8.62149 3.93325 8.69969 3.90435 8.78124 3.89148C9.34934 3.79768 9.9242 3.75091 10.5 3.75164C13.225 3.75164 15.7008 4.78758 17.6609 6.74773C19.132 8.21883 19.7937 9.6868 19.8211 9.74851C19.8566 9.82845 19.875 9.91495 19.875 10.0024C19.875 10.0899 19.8566 10.1764 19.8211 10.2563H19.8187Z" fill="#343330"/>
</svg>
